M48
METRIC,TZ
T01C1.0000
T02C1.0160
T03C3.2000
%
T01
X-13076Y+21662
X-13076Y+19122
X-13076Y+16582
X-13076Y+14042
X-13076Y+11502
X-13076Y+8962
X-13076Y+6422
X-13076Y+3882
X-13076Y+1342
X-13076Y-1198
X-13076Y-3738
X-13076Y-6278
X-13076Y-8818
X-13076Y-11358
X-13076Y-13898
X-13076Y-16438
X-13076Y-18978
X-13076Y-21518
X-13076Y-24058
X+12324Y-24058
X+12324Y-21518
X+12324Y-18978
X+12324Y-16438
X+12324Y-13898
X+12324Y-11358
X+12324Y-8818
X+12324Y-6278
X+12324Y-3738
X+12324Y-1198
X+12324Y+1342
X+12324Y+3882
X+12324Y+6422
X+12324Y+8962
X+12324Y+11502
X+12324Y+14042
X+12324Y+16582
X+12324Y+19122
X+12324Y+21662
T02
X-26176Y-21446
X-26176Y-18906
X-26176Y-16366
X-26176Y-13826
X-26176Y-11286
X-26654Y+18848
X-26654Y+16308
X-26654Y+13768
X-26654Y+11228
X+22324Y-582
X+22324Y-3122
X+22324Y-5662
X+22324Y-8202
X+22324Y-14994
X+22324Y-17534
X+22324Y-20074
X+22324Y-22614
X-27119Y+3092
X-27119Y+552
X-27119Y-1988
X-27119Y-4528
X-24579Y-4528
X-24579Y-1988
X-24579Y+552
X-24579Y+3092
X+22450Y+24315
X+22450Y+21775
X+22450Y+19235
X+22450Y+16695
X+22450Y+14155
X+22450Y+11615
X+22450Y+9075
X+22450Y+6535
X-16976Y+21612
X-16976Y+19072
X-16976Y+16532
X-16976Y+13992
X-16976Y+11452
X-16976Y+8912
X-16976Y+6372
X-16976Y+3832
X-16976Y+1292
X-16976Y-1248
X-16976Y-3788
X-16976Y-6328
X-16976Y-8868
X-16976Y-11408
X-16976Y-13948
X-16976Y-16488
X-16976Y-19028
X-16976Y-21578
X-16976Y-24118
X+16324Y+21712
X+16324Y+19172
X+16324Y+16632
X+16324Y+14092
X+16324Y+11552
X+16324Y+9012
X+16324Y+6472
X+16324Y+3932
X+16324Y+1392
X+16324Y-1148
X+16324Y-3688
X+16324Y-6228
X+16324Y-8768
X+16324Y-11308
X+16324Y-13848
X+16324Y-16388
X+16324Y-18928
X+16324Y-21478
X+16324Y-24018
T03
X-31600Y+26900
X+31400Y+26900
X-31600Y-27000
X+31400Y-27100
M30
