G04 PROTEUS RS274X GERBER FILE*
%FSLAX45Y45*%
%MOMM*%
G01*
%ADD13C,0.203200*%
%ADD19C,0.127000*%
%ADD70C,0.063500*%
D13*
X-1352524Y+2211080D02*
X-1262722Y+2121278D01*
X-1352524Y+2121278D02*
X-1262722Y+2211080D01*
X-1352524Y+1957080D02*
X-1262722Y+1867278D01*
X-1352524Y+1867278D02*
X-1262722Y+1957080D01*
X-1352524Y+1703080D02*
X-1262722Y+1613278D01*
X-1352524Y+1613278D02*
X-1262722Y+1703080D01*
X-1352524Y+1449080D02*
X-1262722Y+1359278D01*
X-1352524Y+1359278D02*
X-1262722Y+1449080D01*
X-1352524Y+1195080D02*
X-1262722Y+1105278D01*
X-1352524Y+1105278D02*
X-1262722Y+1195080D01*
X-1352524Y+941080D02*
X-1262722Y+851278D01*
X-1352524Y+851278D02*
X-1262722Y+941080D01*
X-1352524Y+687080D02*
X-1262722Y+597278D01*
X-1352524Y+597278D02*
X-1262722Y+687080D01*
X-1352524Y+433080D02*
X-1262722Y+343278D01*
X-1352524Y+343278D02*
X-1262722Y+433080D01*
X-1352524Y+179080D02*
X-1262722Y+89278D01*
X-1352524Y+89278D02*
X-1262722Y+179080D01*
X-1352524Y-74911D02*
X-1262722Y-164713D01*
X-1352524Y-164713D02*
X-1262722Y-74911D01*
X-1352524Y-328920D02*
X-1262722Y-418722D01*
X-1352524Y-418722D02*
X-1262722Y-328920D01*
X-1352524Y-582920D02*
X-1262722Y-672722D01*
X-1352524Y-672722D02*
X-1262722Y-582920D01*
X-1352524Y-836920D02*
X-1262722Y-926722D01*
X-1352524Y-926722D02*
X-1262722Y-836920D01*
X-1352524Y-1090920D02*
X-1262722Y-1180722D01*
X-1352524Y-1180722D02*
X-1262722Y-1090920D01*
X-1352524Y-1344920D02*
X-1262722Y-1434722D01*
X-1352524Y-1434722D02*
X-1262722Y-1344920D01*
X-1352524Y-1598920D02*
X-1262722Y-1688722D01*
X-1352524Y-1688722D02*
X-1262722Y-1598920D01*
X-1352524Y-1852920D02*
X-1262722Y-1942722D01*
X-1352524Y-1942722D02*
X-1262722Y-1852920D01*
X-1352524Y-2106920D02*
X-1262722Y-2196722D01*
X-1352524Y-2196722D02*
X-1262722Y-2106920D01*
X-1352524Y-2360920D02*
X-1262722Y-2450722D01*
X-1352524Y-2450722D02*
X-1262722Y-2360920D01*
X+1187476Y-2360920D02*
X+1277278Y-2450722D01*
X+1187476Y-2450722D02*
X+1277278Y-2360920D01*
X+1187476Y-2106920D02*
X+1277278Y-2196722D01*
X+1187476Y-2196722D02*
X+1277278Y-2106920D01*
X+1187476Y-1852920D02*
X+1277278Y-1942722D01*
X+1187476Y-1942722D02*
X+1277278Y-1852920D01*
X+1187476Y-1598920D02*
X+1277278Y-1688722D01*
X+1187476Y-1688722D02*
X+1277278Y-1598920D01*
X+1187476Y-1344920D02*
X+1277278Y-1434722D01*
X+1187476Y-1434722D02*
X+1277278Y-1344920D01*
X+1187476Y-1090920D02*
X+1277278Y-1180722D01*
X+1187476Y-1180722D02*
X+1277278Y-1090920D01*
X+1187476Y-836920D02*
X+1277278Y-926722D01*
X+1187476Y-926722D02*
X+1277278Y-836920D01*
X+1187476Y-582920D02*
X+1277278Y-672722D01*
X+1187476Y-672722D02*
X+1277278Y-582920D01*
X+1187476Y-328920D02*
X+1277278Y-418722D01*
X+1187476Y-418722D02*
X+1277278Y-328920D01*
X+1187476Y-74911D02*
X+1277278Y-164713D01*
X+1187476Y-164713D02*
X+1277278Y-74911D01*
X+1187476Y+179080D02*
X+1277278Y+89278D01*
X+1187476Y+89278D02*
X+1277278Y+179080D01*
X+1187476Y+433080D02*
X+1277278Y+343278D01*
X+1187476Y+343278D02*
X+1277278Y+433080D01*
X+1187476Y+687080D02*
X+1277278Y+597278D01*
X+1187476Y+597278D02*
X+1277278Y+687080D01*
X+1187476Y+941080D02*
X+1277278Y+851278D01*
X+1187476Y+851278D02*
X+1277278Y+941080D01*
X+1187476Y+1195080D02*
X+1277278Y+1105278D01*
X+1187476Y+1105278D02*
X+1277278Y+1195080D01*
X+1187476Y+1449080D02*
X+1277278Y+1359278D01*
X+1187476Y+1359278D02*
X+1277278Y+1449080D01*
X+1187476Y+1703080D02*
X+1277278Y+1613278D01*
X+1187476Y+1613278D02*
X+1277278Y+1703080D01*
X+1187476Y+1957080D02*
X+1277278Y+1867278D01*
X+1187476Y+1867278D02*
X+1277278Y+1957080D01*
X+1187476Y+2211080D02*
X+1277278Y+2121278D01*
X+1187476Y+2121278D02*
X+1277278Y+2211080D01*
X-2617623Y-2081099D02*
X-2617623Y-2208099D01*
X-2681123Y-2144599D02*
X-2554123Y-2144599D01*
X-2617623Y-1827099D02*
X-2617623Y-1954099D01*
X-2681123Y-1890599D02*
X-2554123Y-1890599D01*
X-2617623Y-1573099D02*
X-2617623Y-1700099D01*
X-2681123Y-1636599D02*
X-2554123Y-1636599D01*
X-2617623Y-1319099D02*
X-2617623Y-1446099D01*
X-2681123Y-1382599D02*
X-2554123Y-1382599D01*
X-2617623Y-1065099D02*
X-2617623Y-1192099D01*
X-2681123Y-1128599D02*
X-2554123Y-1128599D01*
X-2665377Y+1948321D02*
X-2665377Y+1821321D01*
X-2728877Y+1884821D02*
X-2601877Y+1884821D01*
X-2665377Y+1694321D02*
X-2665377Y+1567321D01*
X-2728877Y+1630821D02*
X-2601877Y+1630821D01*
X-2665377Y+1440321D02*
X-2665377Y+1313321D01*
X-2728877Y+1376821D02*
X-2601877Y+1376821D01*
X-2665377Y+1186321D02*
X-2665377Y+1059321D01*
X-2728877Y+1122821D02*
X-2601877Y+1122821D01*
X+2232377Y+5278D02*
X+2232377Y-121722D01*
X+2168877Y-58222D02*
X+2295877Y-58222D01*
X+2232377Y-248722D02*
X+2232377Y-375722D01*
X+2168877Y-312222D02*
X+2295877Y-312222D01*
X+2232377Y-502722D02*
X+2232377Y-629722D01*
X+2168877Y-566222D02*
X+2295877Y-566222D01*
X+2232377Y-756722D02*
X+2232377Y-883722D01*
X+2168877Y-820222D02*
X+2295877Y-820222D01*
X+2232377Y-1435920D02*
X+2232377Y-1562920D01*
X+2168877Y-1499420D02*
X+2295877Y-1499420D01*
X+2232377Y-1689920D02*
X+2232377Y-1816920D01*
X+2168877Y-1753420D02*
X+2295877Y-1753420D01*
X+2232377Y-1943920D02*
X+2232377Y-2070920D01*
X+2168877Y-2007420D02*
X+2295877Y-2007420D01*
X+2232377Y-2197920D02*
X+2232377Y-2324920D01*
X+2168877Y-2261420D02*
X+2295877Y-2261420D01*
X-2711939Y+372732D02*
X-2711939Y+245732D01*
X-2775439Y+309232D02*
X-2648439Y+309232D01*
X-2711939Y+118732D02*
X-2711939Y-8268D01*
X-2775439Y+55232D02*
X-2648439Y+55232D01*
X-2711939Y-135268D02*
X-2711939Y-262268D01*
X-2775439Y-198768D02*
X-2648439Y-198768D01*
X-2711939Y-389268D02*
X-2711939Y-516268D01*
X-2775439Y-452768D02*
X-2648439Y-452768D01*
X-2457939Y-389268D02*
X-2457939Y-516268D01*
X-2521439Y-452768D02*
X-2394439Y-452768D01*
X-2457939Y-135268D02*
X-2457939Y-262268D01*
X-2521439Y-198768D02*
X-2394439Y-198768D01*
X-2457939Y+118732D02*
X-2457939Y-8268D01*
X-2521439Y+55232D02*
X-2394439Y+55232D01*
X-2457939Y+372732D02*
X-2457939Y+245732D01*
X-2521439Y+309232D02*
X-2394439Y+309232D01*
X+2245037Y+2495019D02*
X+2245037Y+2368019D01*
X+2181537Y+2431519D02*
X+2308537Y+2431519D01*
X+2245037Y+2241019D02*
X+2245037Y+2114019D01*
X+2181537Y+2177519D02*
X+2308537Y+2177519D01*
X+2245037Y+1987019D02*
X+2245037Y+1860019D01*
X+2181537Y+1923519D02*
X+2308537Y+1923519D01*
X+2245037Y+1733019D02*
X+2245037Y+1606019D01*
X+2181537Y+1669519D02*
X+2308537Y+1669519D01*
X+2245037Y+1479019D02*
X+2245037Y+1352019D01*
X+2181537Y+1415519D02*
X+2308537Y+1415519D01*
X+2245037Y+1225019D02*
X+2245037Y+1098019D01*
X+2181537Y+1161519D02*
X+2308537Y+1161519D01*
X+2245037Y+971019D02*
X+2245037Y+844019D01*
X+2181537Y+907519D02*
X+2308537Y+907519D01*
X+2245037Y+717019D02*
X+2245037Y+590019D01*
X+2181537Y+653519D02*
X+2308537Y+653519D01*
X-1697623Y+2224679D02*
X-1697623Y+2097679D01*
X-1761123Y+2161179D02*
X-1634123Y+2161179D01*
X-1697623Y+1970679D02*
X-1697623Y+1843679D01*
X-1761123Y+1907179D02*
X-1634123Y+1907179D01*
X-1697623Y+1716679D02*
X-1697623Y+1589679D01*
X-1761123Y+1653179D02*
X-1634123Y+1653179D01*
X-1697623Y+1462679D02*
X-1697623Y+1335679D01*
X-1761123Y+1399179D02*
X-1634123Y+1399179D01*
X-1697623Y+1208679D02*
X-1697623Y+1081679D01*
X-1761123Y+1145179D02*
X-1634123Y+1145179D01*
X-1697623Y+954679D02*
X-1697623Y+827679D01*
X-1761123Y+891179D02*
X-1634123Y+891179D01*
X-1697623Y+700679D02*
X-1697623Y+573679D01*
X-1761123Y+637179D02*
X-1634123Y+637179D01*
X-1697623Y+446679D02*
X-1697623Y+319679D01*
X-1761123Y+383179D02*
X-1634123Y+383179D01*
X-1697623Y+192679D02*
X-1697623Y+65679D01*
X-1761123Y+129179D02*
X-1634123Y+129179D01*
X-1697623Y-61321D02*
X-1697623Y-188321D01*
X-1761123Y-124821D02*
X-1634123Y-124821D01*
X-1697623Y-315321D02*
X-1697623Y-442321D01*
X-1761123Y-378821D02*
X-1634123Y-378821D01*
X-1697623Y-569321D02*
X-1697623Y-696321D01*
X-1761123Y-632821D02*
X-1634123Y-632821D01*
X-1697623Y-823321D02*
X-1697623Y-950321D01*
X-1761123Y-886821D02*
X-1634123Y-886821D01*
X-1697623Y-1077321D02*
X-1697623Y-1204321D01*
X-1761123Y-1140821D02*
X-1634123Y-1140821D01*
X-1697623Y-1331321D02*
X-1697623Y-1458321D01*
X-1761123Y-1394821D02*
X-1634123Y-1394821D01*
X-1697623Y-1585321D02*
X-1697623Y-1712321D01*
X-1761123Y-1648821D02*
X-1634123Y-1648821D01*
X-1697623Y-1839321D02*
X-1697623Y-1966321D01*
X-1761123Y-1902821D02*
X-1634123Y-1902821D01*
X-1697623Y-2094321D02*
X-1697623Y-2221321D01*
X-1761123Y-2157821D02*
X-1634123Y-2157821D01*
X-1697623Y-2348321D02*
X-1697623Y-2475321D01*
X-1761123Y-2411821D02*
X-1634123Y-2411821D01*
X+1632377Y+2234679D02*
X+1632377Y+2107679D01*
X+1568877Y+2171179D02*
X+1695877Y+2171179D01*
X+1632377Y+1980679D02*
X+1632377Y+1853679D01*
X+1568877Y+1917179D02*
X+1695877Y+1917179D01*
X+1632377Y+1726679D02*
X+1632377Y+1599679D01*
X+1568877Y+1663179D02*
X+1695877Y+1663179D01*
X+1632377Y+1472679D02*
X+1632377Y+1345679D01*
X+1568877Y+1409179D02*
X+1695877Y+1409179D01*
X+1632377Y+1218679D02*
X+1632377Y+1091679D01*
X+1568877Y+1155179D02*
X+1695877Y+1155179D01*
X+1632377Y+964679D02*
X+1632377Y+837679D01*
X+1568877Y+901179D02*
X+1695877Y+901179D01*
X+1632377Y+710679D02*
X+1632377Y+583679D01*
X+1568877Y+647179D02*
X+1695877Y+647179D01*
X+1632377Y+456679D02*
X+1632377Y+329679D01*
X+1568877Y+393179D02*
X+1695877Y+393179D01*
X+1632377Y+202679D02*
X+1632377Y+75679D01*
X+1568877Y+139179D02*
X+1695877Y+139179D01*
X+1632377Y-51321D02*
X+1632377Y-178321D01*
X+1568877Y-114821D02*
X+1695877Y-114821D01*
X+1632377Y-305321D02*
X+1632377Y-432321D01*
X+1568877Y-368821D02*
X+1695877Y-368821D01*
X+1632377Y-559321D02*
X+1632377Y-686321D01*
X+1568877Y-622821D02*
X+1695877Y-622821D01*
X+1632377Y-813321D02*
X+1632377Y-940321D01*
X+1568877Y-876821D02*
X+1695877Y-876821D01*
X+1632377Y-1067321D02*
X+1632377Y-1194321D01*
X+1568877Y-1130821D02*
X+1695877Y-1130821D01*
X+1632377Y-1321321D02*
X+1632377Y-1448321D01*
X+1568877Y-1384821D02*
X+1695877Y-1384821D01*
X+1632377Y-1575321D02*
X+1632377Y-1702321D01*
X+1568877Y-1638821D02*
X+1695877Y-1638821D01*
X+1632377Y-1829321D02*
X+1632377Y-1956321D01*
X+1568877Y-1892821D02*
X+1695877Y-1892821D01*
X+1632377Y-2084321D02*
X+1632377Y-2211321D01*
X+1568877Y-2147821D02*
X+1695877Y-2147821D01*
X+1632377Y-2338321D02*
X+1632377Y-2465321D01*
X+1568877Y-2401821D02*
X+1695877Y-2401821D01*
X-3160000Y+2753500D02*
X-3160000Y+2626500D01*
X-3223500Y+2690000D02*
X-3096500Y+2690000D01*
X-3204901Y+2734901D02*
X-3115099Y+2645099D01*
X-3204901Y+2645099D02*
X-3115099Y+2734901D01*
X+3140000Y+2753500D02*
X+3140000Y+2626500D01*
X+3076500Y+2690000D02*
X+3203500Y+2690000D01*
X+3095099Y+2734901D02*
X+3184901Y+2645099D01*
X+3095099Y+2645099D02*
X+3184901Y+2734901D01*
X-3160000Y-2636500D02*
X-3160000Y-2763500D01*
X-3223500Y-2700000D02*
X-3096500Y-2700000D01*
X-3204901Y-2655099D02*
X-3115099Y-2744901D01*
X-3204901Y-2744901D02*
X-3115099Y-2655099D01*
X+3140000Y-2646500D02*
X+3140000Y-2773500D01*
X+3076500Y-2710000D02*
X+3203500Y-2710000D01*
X+3095099Y-2665099D02*
X+3184901Y-2754901D01*
X+3095099Y-2754901D02*
X+3184901Y-2665099D01*
X-3500000Y-3000000D02*
X+3500000Y-3000000D01*
X+3500000Y+3000000D01*
X-3500000Y+3000000D01*
X-3500000Y-3000000D01*
D19*
X-3550800Y-4308100D02*
X-906660Y-4308100D01*
X-906660Y-3304800D01*
X-3550800Y-3304800D01*
X-3550800Y-4308100D01*
D70*
X-3083438Y-3304800D02*
X-3083438Y-4308100D01*
X-2270638Y-3304800D02*
X-2270638Y-4308100D01*
X-1437518Y-3304800D02*
X-1437518Y-4308100D01*
X-3550800Y-3577850D02*
X-906660Y-3577850D01*
X-3550800Y-3819150D02*
X-906660Y-3819150D01*
X-3550800Y-4060450D02*
X-906660Y-4060450D01*
D19*
X-3493650Y-3468630D02*
X-3478410Y-3483870D01*
X-3417450Y-3483870D01*
X-3402210Y-3468630D01*
X-3402210Y-3453390D01*
X-3417450Y-3438150D01*
X-3478410Y-3438150D01*
X-3493650Y-3422910D01*
X-3493650Y-3407670D01*
X-3478410Y-3392430D01*
X-3417450Y-3392430D01*
X-3402210Y-3407670D01*
X-3280290Y-3392430D02*
X-3371730Y-3483870D01*
X-3371730Y-3392430D02*
X-3326010Y-3438150D01*
X-3249810Y-3483870D02*
X-3249810Y-3392430D01*
X-3204090Y-3438150D01*
X-3158370Y-3392430D01*
X-3158370Y-3483870D01*
X-3026290Y-3468630D02*
X-3011050Y-3483870D01*
X-2950090Y-3483870D01*
X-2934850Y-3468630D01*
X-2934850Y-3453390D01*
X-2950090Y-3438150D01*
X-3011050Y-3438150D01*
X-3026290Y-3422910D01*
X-3026290Y-3407670D01*
X-3011050Y-3392430D01*
X-2950090Y-3392430D01*
X-2934850Y-3407670D01*
X-2889130Y-3392430D02*
X-2828170Y-3392430D01*
X-2858650Y-3392430D02*
X-2858650Y-3483870D01*
X-2889130Y-3483870D02*
X-2828170Y-3483870D01*
X-2782450Y-3392430D02*
X-2691010Y-3392430D01*
X-2782450Y-3483870D01*
X-2691010Y-3483870D01*
X-2569090Y-3483870D02*
X-2660530Y-3483870D01*
X-2660530Y-3392430D01*
X-2569090Y-3392430D01*
X-2660530Y-3438150D02*
X-2599570Y-3438150D01*
X-2213490Y-3483870D02*
X-2213490Y-3392430D01*
X-2137290Y-3392430D01*
X-2122050Y-3407670D01*
X-2122050Y-3422910D01*
X-2137290Y-3438150D01*
X-2213490Y-3438150D01*
X-2091570Y-3392430D02*
X-2091570Y-3483870D01*
X-2000130Y-3483870D01*
X-1969650Y-3483870D02*
X-1969650Y-3422910D01*
X-1939170Y-3392430D01*
X-1908690Y-3392430D01*
X-1878210Y-3422910D01*
X-1878210Y-3483870D01*
X-1969650Y-3453390D02*
X-1878210Y-3453390D01*
X-1847730Y-3392430D02*
X-1756290Y-3392430D01*
X-1802010Y-3392430D02*
X-1802010Y-3483870D01*
X-1634370Y-3483870D02*
X-1725810Y-3483870D01*
X-1725810Y-3392430D01*
X-1634370Y-3392430D01*
X-1725810Y-3438150D02*
X-1664850Y-3438150D01*
X-1603890Y-3483870D02*
X-1603890Y-3392430D01*
X-1542930Y-3392430D01*
X-1512450Y-3422910D01*
X-1512450Y-3453390D01*
X-1542930Y-3483870D01*
X-1603890Y-3483870D01*
X-1380370Y-3422910D02*
X-1349890Y-3392430D01*
X-1319410Y-3392430D01*
X-1288930Y-3422910D01*
X-1288930Y-3453390D01*
X-1319410Y-3483870D01*
X-1349890Y-3483870D01*
X-1380370Y-3453390D01*
X-1380370Y-3422910D01*
X-1319410Y-3453390D02*
X-1288930Y-3483870D01*
X-1258450Y-3392430D02*
X-1167010Y-3392430D01*
X-1212730Y-3392430D02*
X-1212730Y-3483870D01*
X-1045090Y-3392430D02*
X-1136530Y-3483870D01*
X-1136530Y-3392430D02*
X-1090810Y-3438150D01*
D13*
X-3304420Y-3628650D02*
X-3304420Y-3755650D01*
X-3367920Y-3692150D02*
X-3240920Y-3692150D01*
D19*
X-2981840Y-3679450D02*
X-2956440Y-3654050D01*
X-2956440Y-3730250D01*
X-2867540Y-3717550D02*
X-2854840Y-3717550D01*
X-2854840Y-3730250D01*
X-2867540Y-3730250D01*
X-2867540Y-3717550D01*
X-2804040Y-3717550D02*
X-2804040Y-3666750D01*
X-2791340Y-3654050D01*
X-2740540Y-3654050D01*
X-2727840Y-3666750D01*
X-2727840Y-3717550D01*
X-2740540Y-3730250D01*
X-2791340Y-3730250D01*
X-2804040Y-3717550D01*
X-2804040Y-3730250D02*
X-2727840Y-3654050D01*
X-2677040Y-3679450D02*
X-2651640Y-3654050D01*
X-2651640Y-3730250D01*
X-2524640Y-3666750D02*
X-2537340Y-3654050D01*
X-2575440Y-3654050D01*
X-2588140Y-3666750D01*
X-2588140Y-3717550D01*
X-2575440Y-3730250D01*
X-2537340Y-3730250D01*
X-2524640Y-3717550D01*
X-2524640Y-3704850D01*
X-2537340Y-3692150D01*
X-2588140Y-3692150D01*
X-2499240Y-3730250D02*
X-2499240Y-3679450D01*
X-2499240Y-3692150D02*
X-2486540Y-3679450D01*
X-2461140Y-3704850D01*
X-2435740Y-3679450D01*
X-2423040Y-3692150D01*
X-2423040Y-3730250D01*
X-2397640Y-3730250D02*
X-2397640Y-3679450D01*
X-2397640Y-3692150D02*
X-2384940Y-3679450D01*
X-2359540Y-3704850D01*
X-2334140Y-3679450D01*
X-2321440Y-3692150D01*
X-2321440Y-3730250D01*
X-2105540Y-3654050D02*
X-2181740Y-3730250D01*
X-2181740Y-3654050D02*
X-2143640Y-3692150D01*
X-2003940Y-3730250D02*
X-2080140Y-3730250D01*
X-2080140Y-3654050D01*
X-2003940Y-3654050D01*
X-2080140Y-3692150D02*
X-2029340Y-3692150D01*
X-1978540Y-3717550D02*
X-1965840Y-3730250D01*
X-1915040Y-3730250D01*
X-1902340Y-3717550D01*
X-1902340Y-3704850D01*
X-1915040Y-3692150D01*
X-1965840Y-3692150D01*
X-1978540Y-3679450D01*
X-1978540Y-3666750D01*
X-1965840Y-3654050D01*
X-1915040Y-3654050D01*
X-1902340Y-3666750D01*
X-1323220Y-3654050D02*
X-1259720Y-3654050D01*
X-1259720Y-3666750D01*
X-1323220Y-3730250D01*
X-1208920Y-3679450D02*
X-1183520Y-3654050D01*
X-1183520Y-3730250D01*
D13*
X-3349321Y-3888549D02*
X-3259519Y-3978351D01*
X-3349321Y-3978351D02*
X-3259519Y-3888549D01*
D19*
X-2981840Y-3920750D02*
X-2956440Y-3895350D01*
X-2956440Y-3971550D01*
X-2905640Y-3971550D02*
X-2905640Y-3920750D01*
X-2905640Y-3933450D02*
X-2892940Y-3920750D01*
X-2867540Y-3946150D01*
X-2842140Y-3920750D01*
X-2829440Y-3933450D01*
X-2829440Y-3971550D01*
X-2804040Y-3971550D02*
X-2804040Y-3920750D01*
X-2804040Y-3933450D02*
X-2791340Y-3920750D01*
X-2765940Y-3946150D01*
X-2740540Y-3920750D01*
X-2727840Y-3933450D01*
X-2727840Y-3971550D01*
X-2105540Y-3895350D02*
X-2181740Y-3971550D01*
X-2181740Y-3895350D02*
X-2143640Y-3933450D01*
X-2003940Y-3971550D02*
X-2080140Y-3971550D01*
X-2080140Y-3895350D01*
X-2003940Y-3895350D01*
X-2080140Y-3933450D02*
X-2029340Y-3933450D01*
X-1978540Y-3958850D02*
X-1965840Y-3971550D01*
X-1915040Y-3971550D01*
X-1902340Y-3958850D01*
X-1902340Y-3946150D01*
X-1915040Y-3933450D01*
X-1965840Y-3933450D01*
X-1978540Y-3920750D01*
X-1978540Y-3908050D01*
X-1965840Y-3895350D01*
X-1915040Y-3895350D01*
X-1902340Y-3908050D01*
X-1323220Y-3908050D02*
X-1310520Y-3895350D01*
X-1272420Y-3895350D01*
X-1259720Y-3908050D01*
X-1259720Y-3920750D01*
X-1272420Y-3933450D01*
X-1259720Y-3946150D01*
X-1259720Y-3958850D01*
X-1272420Y-3971550D01*
X-1310520Y-3971550D01*
X-1323220Y-3958850D01*
X-1297820Y-3933450D02*
X-1272420Y-3933450D01*
X-1208920Y-3933450D02*
X-1221620Y-3920750D01*
X-1221620Y-3908050D01*
X-1208920Y-3895350D01*
X-1170820Y-3895350D01*
X-1158120Y-3908050D01*
X-1158120Y-3920750D01*
X-1170820Y-3933450D01*
X-1208920Y-3933450D01*
X-1221620Y-3946150D01*
X-1221620Y-3958850D01*
X-1208920Y-3971550D01*
X-1170820Y-3971550D01*
X-1158120Y-3958850D01*
X-1158120Y-3946150D01*
X-1170820Y-3933450D01*
D13*
X-3304420Y-4111250D02*
X-3304420Y-4238250D01*
X-3367920Y-4174750D02*
X-3240920Y-4174750D01*
X-3349321Y-4129849D02*
X-3259519Y-4219651D01*
X-3349321Y-4219651D02*
X-3259519Y-4129849D01*
D19*
X-2994540Y-4149350D02*
X-2981840Y-4136650D01*
X-2943740Y-4136650D01*
X-2931040Y-4149350D01*
X-2931040Y-4162050D01*
X-2943740Y-4174750D01*
X-2931040Y-4187450D01*
X-2931040Y-4200150D01*
X-2943740Y-4212850D01*
X-2981840Y-4212850D01*
X-2994540Y-4200150D01*
X-2969140Y-4174750D02*
X-2943740Y-4174750D01*
X-2867540Y-4200150D02*
X-2854840Y-4200150D01*
X-2854840Y-4212850D01*
X-2867540Y-4212850D01*
X-2867540Y-4200150D01*
X-2791340Y-4149350D02*
X-2778640Y-4136650D01*
X-2740540Y-4136650D01*
X-2727840Y-4149350D01*
X-2727840Y-4162050D01*
X-2740540Y-4174750D01*
X-2778640Y-4174750D01*
X-2791340Y-4187450D01*
X-2791340Y-4212850D01*
X-2727840Y-4212850D01*
X-2702440Y-4212850D02*
X-2702440Y-4162050D01*
X-2702440Y-4174750D02*
X-2689740Y-4162050D01*
X-2664340Y-4187450D01*
X-2638940Y-4162050D01*
X-2626240Y-4174750D01*
X-2626240Y-4212850D01*
X-2600840Y-4212850D02*
X-2600840Y-4162050D01*
X-2600840Y-4174750D02*
X-2588140Y-4162050D01*
X-2562740Y-4187450D01*
X-2537340Y-4162050D01*
X-2524640Y-4174750D01*
X-2524640Y-4212850D01*
X-2181740Y-4212850D02*
X-2181740Y-4136650D01*
X-2105540Y-4212850D01*
X-2105540Y-4136650D01*
X-2080140Y-4162050D02*
X-2054740Y-4136650D01*
X-2029340Y-4136650D01*
X-2003940Y-4162050D01*
X-2003940Y-4187450D01*
X-2029340Y-4212850D01*
X-2054740Y-4212850D01*
X-2080140Y-4187450D01*
X-2080140Y-4162050D01*
X-1259720Y-4187450D02*
X-1335920Y-4187450D01*
X-1285120Y-4136650D01*
X-1285120Y-4212850D01*
M02*
