G04 PROTEUS RS274X GERBER FILE*
%FSLAX45Y45*%
%MOMM*%
G01*
%ADD18C,0.200000*%
%ADD19C,0.127000*%
%ADD13C,0.203200*%
%ADD70C,0.063500*%
D18*
X-1484623Y+2178179D02*
X-1484658Y+2179010D01*
X-1484939Y+2180674D01*
X-1485529Y+2182338D01*
X-1486493Y+2184002D01*
X-1487968Y+2185643D01*
X-1489632Y+2186844D01*
X-1491296Y+2187609D01*
X-1492960Y+2188040D01*
X-1494623Y+2188179D01*
X-1504623Y+2178179D02*
X-1504588Y+2179010D01*
X-1504307Y+2180674D01*
X-1503717Y+2182338D01*
X-1502753Y+2184002D01*
X-1501278Y+2185643D01*
X-1499614Y+2186844D01*
X-1497950Y+2187609D01*
X-1496286Y+2188040D01*
X-1494623Y+2188179D01*
X-1504623Y+2178179D02*
X-1504588Y+2177348D01*
X-1504307Y+2175684D01*
X-1503717Y+2174020D01*
X-1502753Y+2172356D01*
X-1501278Y+2170715D01*
X-1499614Y+2169514D01*
X-1497950Y+2168749D01*
X-1496286Y+2168318D01*
X-1494623Y+2168179D01*
X-1484623Y+2178179D02*
X-1484658Y+2177348D01*
X-1484939Y+2175684D01*
X-1485529Y+2174020D01*
X-1486493Y+2172356D01*
X-1487968Y+2170715D01*
X-1489632Y+2169514D01*
X-1491296Y+2168749D01*
X-1492960Y+2168318D01*
X-1494623Y+2168179D01*
D19*
X-1432623Y+2291179D02*
X-1432623Y-2528821D01*
X+1357377Y-2528821D02*
X+1357377Y+2291179D01*
X+862377Y+2291179D01*
X-937623Y+2291179D02*
X-1432623Y+2291179D01*
X-937623Y+2291179D02*
X-937623Y+2911179D01*
X+862377Y+2911179D01*
X+862377Y+2291179D01*
X-1432623Y-2528821D02*
X-444623Y-2528821D01*
X-444623Y-2618821D01*
X+368377Y-2618821D01*
X+368377Y-2528821D01*
X+1357377Y-2528821D01*
D13*
X-3500000Y-3000000D02*
X+3500000Y-3000000D01*
X+3500000Y+3000000D01*
X-3500000Y+3000000D01*
X-3500000Y-3000000D01*
D19*
X-2279623Y-879599D02*
X-2279623Y-2389599D01*
X-2855623Y-2389599D01*
X-2855623Y-879599D01*
X-2279623Y-879599D01*
D18*
X-2610623Y-2469599D02*
X-2610658Y-2468768D01*
X-2610939Y-2467104D01*
X-2611529Y-2465440D01*
X-2612493Y-2463776D01*
X-2613968Y-2462135D01*
X-2615632Y-2460934D01*
X-2617296Y-2460169D01*
X-2618960Y-2459738D01*
X-2620623Y-2459599D01*
X-2630623Y-2469599D02*
X-2630588Y-2468768D01*
X-2630307Y-2467104D01*
X-2629717Y-2465440D01*
X-2628753Y-2463776D01*
X-2627278Y-2462135D01*
X-2625614Y-2460934D01*
X-2623950Y-2460169D01*
X-2622286Y-2459738D01*
X-2620623Y-2459599D01*
X-2630623Y-2469599D02*
X-2630588Y-2470430D01*
X-2630307Y-2472094D01*
X-2629717Y-2473758D01*
X-2628753Y-2475422D01*
X-2627278Y-2477063D01*
X-2625614Y-2478264D01*
X-2623950Y-2479029D01*
X-2622286Y-2479460D01*
X-2620623Y-2479599D01*
X-2610623Y-2469599D02*
X-2610658Y-2470430D01*
X-2610939Y-2472094D01*
X-2611529Y-2473758D01*
X-2612493Y-2475422D01*
X-2613968Y-2477063D01*
X-2615632Y-2478264D01*
X-2617296Y-2479029D01*
X-2618960Y-2479460D01*
X-2620623Y-2479599D01*
D19*
X-2993377Y+884821D02*
X-2993377Y+2144821D01*
X-2417377Y+2144821D01*
X-2417377Y+884821D01*
X-2993377Y+884821D01*
D18*
X-2642377Y+2224821D02*
X-2642412Y+2225652D01*
X-2642693Y+2227316D01*
X-2643283Y+2228980D01*
X-2644247Y+2230644D01*
X-2645722Y+2232285D01*
X-2647386Y+2233486D01*
X-2649050Y+2234251D01*
X-2650714Y+2234682D01*
X-2652377Y+2234821D01*
X-2662377Y+2224821D02*
X-2662342Y+2225652D01*
X-2662061Y+2227316D01*
X-2661471Y+2228980D01*
X-2660507Y+2230644D01*
X-2659032Y+2232285D01*
X-2657368Y+2233486D01*
X-2655704Y+2234251D01*
X-2654040Y+2234682D01*
X-2652377Y+2234821D01*
X-2662377Y+2224821D02*
X-2662342Y+2223990D01*
X-2662061Y+2222326D01*
X-2661471Y+2220662D01*
X-2660507Y+2218998D01*
X-2659032Y+2217357D01*
X-2657368Y+2216156D01*
X-2655704Y+2215391D01*
X-2654040Y+2214960D01*
X-2652377Y+2214821D01*
X-2642377Y+2224821D02*
X-2642412Y+2223990D01*
X-2642693Y+2222326D01*
X-2643283Y+2220662D01*
X-2644247Y+2218998D01*
X-2645722Y+2217357D01*
X-2647386Y+2216156D01*
X-2649050Y+2215391D01*
X-2650714Y+2214960D01*
X-2652377Y+2214821D01*
D19*
X+1904377Y-1058222D02*
X+1904377Y+201778D01*
X+2480377Y+201778D01*
X+2480377Y-1058222D01*
X+1904377Y-1058222D01*
D18*
X+2255377Y+281778D02*
X+2255342Y+282609D01*
X+2255061Y+284273D01*
X+2254471Y+285937D01*
X+2253507Y+287601D01*
X+2252032Y+289242D01*
X+2250368Y+290443D01*
X+2248704Y+291208D01*
X+2247040Y+291639D01*
X+2245377Y+291778D01*
X+2235377Y+281778D02*
X+2235412Y+282609D01*
X+2235693Y+284273D01*
X+2236283Y+285937D01*
X+2237247Y+287601D01*
X+2238722Y+289242D01*
X+2240386Y+290443D01*
X+2242050Y+291208D01*
X+2243714Y+291639D01*
X+2245377Y+291778D01*
X+2235377Y+281778D02*
X+2235412Y+280947D01*
X+2235693Y+279283D01*
X+2236283Y+277619D01*
X+2237247Y+275955D01*
X+2238722Y+274314D01*
X+2240386Y+273113D01*
X+2242050Y+272348D01*
X+2243714Y+271917D01*
X+2245377Y+271778D01*
X+2255377Y+281778D02*
X+2255342Y+280947D01*
X+2255061Y+279283D01*
X+2254471Y+277619D01*
X+2253507Y+275955D01*
X+2252032Y+274314D01*
X+2250368Y+273113D01*
X+2248704Y+272348D01*
X+2247040Y+271917D01*
X+2245377Y+271778D01*
D19*
X+1904377Y-2499420D02*
X+1904377Y-1239420D01*
X+2480377Y-1239420D01*
X+2480377Y-2499420D01*
X+1904377Y-2499420D01*
D18*
X+2255377Y-1159420D02*
X+2255342Y-1158589D01*
X+2255061Y-1156925D01*
X+2254471Y-1155261D01*
X+2253507Y-1153597D01*
X+2252032Y-1151956D01*
X+2250368Y-1150755D01*
X+2248704Y-1149990D01*
X+2247040Y-1149559D01*
X+2245377Y-1149420D01*
X+2235377Y-1159420D02*
X+2235412Y-1158589D01*
X+2235693Y-1156925D01*
X+2236283Y-1155261D01*
X+2237247Y-1153597D01*
X+2238722Y-1151956D01*
X+2240386Y-1150755D01*
X+2242050Y-1149990D01*
X+2243714Y-1149559D01*
X+2245377Y-1149420D01*
X+2235377Y-1159420D02*
X+2235412Y-1160251D01*
X+2235693Y-1161915D01*
X+2236283Y-1163579D01*
X+2237247Y-1165243D01*
X+2238722Y-1166884D01*
X+2240386Y-1168085D01*
X+2242050Y-1168850D01*
X+2243714Y-1169281D01*
X+2245377Y-1169420D01*
X+2255377Y-1159420D02*
X+2255342Y-1160251D01*
X+2255061Y-1161915D01*
X+2254471Y-1163579D01*
X+2253507Y-1165243D01*
X+2252032Y-1166884D01*
X+2250368Y-1168085D01*
X+2248704Y-1168850D01*
X+2247040Y-1169281D01*
X+2245377Y-1169420D01*
D13*
X-2838939Y-579768D02*
X-2330939Y-579768D01*
X-2330939Y+436232D01*
X-2838939Y+436232D01*
X-2838939Y-579768D01*
X+2118037Y+526519D02*
X+2372037Y+526519D01*
X+2372037Y+2558519D01*
X+2118037Y+2558519D01*
X+2118037Y+526519D01*
X-1824623Y-2543821D02*
X-1570623Y-2543821D01*
X-1570623Y+2288179D01*
X-1824623Y+2288179D01*
X-1824623Y-2543821D01*
X-1570623Y+2034179D02*
X-1824623Y+2034179D01*
X+1505377Y-2533821D02*
X+1759377Y-2533821D01*
X+1759377Y+2298179D01*
X+1505377Y+2298179D01*
X+1505377Y-2533821D01*
X+1759377Y+2044179D02*
X+1505377Y+2044179D01*
D70*
X-3072662Y+1120380D02*
X-3067582Y+1120380D01*
X-3042182Y+1120380D02*
X-3021862Y+1120380D01*
X-3011702Y+1120380D02*
X-2991382Y+1120380D01*
X-3077742Y+1125460D02*
X-3067582Y+1125460D01*
X-3047262Y+1125460D02*
X-3042182Y+1125460D01*
X-3016782Y+1125460D02*
X-3011702Y+1125460D01*
X-3077742Y+1130540D02*
X-3072662Y+1130540D01*
X-3067582Y+1130540D02*
X-3062502Y+1130540D01*
X-3047262Y+1130540D02*
X-3042182Y+1130540D01*
X-3016782Y+1130540D02*
X-3011702Y+1130540D01*
X-3082822Y+1135620D02*
X-3077742Y+1135620D01*
X-3067582Y+1135620D02*
X-3062502Y+1135620D01*
X-3047262Y+1135620D02*
X-3042182Y+1135620D01*
X-3016782Y+1135620D02*
X-3011702Y+1135620D01*
X-3082822Y+1140700D02*
X-3077742Y+1140700D01*
X-3067582Y+1140700D02*
X-3062502Y+1140700D01*
X-3047262Y+1140700D02*
X-3042182Y+1140700D01*
X-3016782Y+1140700D02*
X-3011702Y+1140700D01*
X-3082822Y+1145780D02*
X-3077742Y+1145780D01*
X-3062502Y+1145780D02*
X-3057422Y+1145780D01*
X-3047262Y+1145780D02*
X-3042182Y+1145780D01*
X-3016782Y+1145780D02*
X-3011702Y+1145780D01*
X-3082822Y+1150860D02*
X-3077742Y+1150860D01*
X-3062502Y+1150860D02*
X-3057422Y+1150860D01*
X-3047262Y+1150860D02*
X-3042182Y+1150860D01*
X-3016782Y+1150860D02*
X-3011702Y+1150860D01*
X-3087902Y+1155940D02*
X-3082822Y+1155940D01*
X-3062502Y+1155940D02*
X-3057422Y+1155940D01*
X-3047262Y+1155940D02*
X-3042182Y+1155940D01*
X-3016782Y+1155940D02*
X-3011702Y+1155940D01*
X-3087902Y+1161020D02*
X-3082822Y+1161020D01*
X-3042182Y+1161020D02*
X-3021862Y+1161020D01*
X-3011702Y+1161020D02*
X-2991382Y+1161020D01*
X-3069563Y+1597360D02*
X-3044163Y+1597360D01*
X-3034003Y+1597360D02*
X-3013683Y+1597360D01*
X-3008603Y+1597360D02*
X-3003523Y+1597360D01*
X-2988283Y+1597360D02*
X-2978123Y+1597360D01*
X-2962883Y+1597360D02*
X-2942563Y+1597360D01*
X-3069563Y+1602440D02*
X-3064483Y+1602440D01*
X-3039083Y+1602440D02*
X-3028923Y+1602440D01*
X-3008603Y+1602440D02*
X-3003523Y+1602440D01*
X-2988283Y+1602440D02*
X-2978123Y+1602440D01*
X-2967963Y+1602440D02*
X-2957803Y+1602440D01*
X-2947643Y+1602440D02*
X-2937483Y+1602440D01*
X-3069563Y+1607520D02*
X-3064483Y+1607520D01*
X-3039083Y+1607520D02*
X-3034003Y+1607520D01*
X-3008603Y+1607520D02*
X-3003523Y+1607520D01*
X-2988283Y+1607520D02*
X-2978123Y+1607520D01*
X-2967963Y+1607520D02*
X-2962883Y+1607520D01*
X-2947643Y+1607520D02*
X-2937483Y+1607520D01*
X-3069563Y+1612600D02*
X-3064483Y+1612600D01*
X-3039083Y+1612600D02*
X-3034003Y+1612600D01*
X-3008603Y+1612600D02*
X-3003523Y+1612600D01*
X-2988283Y+1612600D02*
X-2978123Y+1612600D01*
X-2967963Y+1612600D02*
X-2962883Y+1612600D01*
X-2942563Y+1612600D02*
X-2937483Y+1612600D01*
X-3069563Y+1617680D02*
X-3049243Y+1617680D01*
X-3039083Y+1617680D02*
X-3034003Y+1617680D01*
X-3008603Y+1617680D02*
X-2978123Y+1617680D01*
X-2967963Y+1617680D02*
X-2962883Y+1617680D01*
X-2942563Y+1617680D02*
X-2937483Y+1617680D01*
X-3069563Y+1622760D02*
X-3064483Y+1622760D01*
X-3039083Y+1622760D02*
X-3034003Y+1622760D01*
X-3008603Y+1622760D02*
X-3003523Y+1622760D01*
X-2988283Y+1622760D02*
X-2978123Y+1622760D01*
X-2967963Y+1622760D02*
X-2962883Y+1622760D01*
X-2942563Y+1622760D02*
X-2937483Y+1622760D01*
X-3069563Y+1627840D02*
X-3064483Y+1627840D01*
X-3039083Y+1627840D02*
X-3034003Y+1627840D01*
X-3008603Y+1627840D02*
X-3003523Y+1627840D01*
X-2988283Y+1627840D02*
X-2978123Y+1627840D01*
X-2967963Y+1627840D02*
X-2962883Y+1627840D01*
X-2947643Y+1627840D02*
X-2937483Y+1627840D01*
X-3069563Y+1632920D02*
X-3064483Y+1632920D01*
X-3039083Y+1632920D02*
X-3028923Y+1632920D01*
X-3008603Y+1632920D02*
X-3003523Y+1632920D01*
X-2988283Y+1632920D02*
X-2978123Y+1632920D01*
X-2967963Y+1632920D02*
X-2957803Y+1632920D01*
X-2947643Y+1632920D02*
X-2942563Y+1632920D01*
X-3069563Y+1638000D02*
X-3044163Y+1638000D01*
X-3034003Y+1638000D02*
X-3013683Y+1638000D01*
X-3008603Y+1638000D02*
X-3003523Y+1638000D01*
X-2988283Y+1638000D02*
X-2978123Y+1638000D01*
X-2962883Y+1638000D02*
X-2947643Y+1638000D01*
X-3048854Y+1347360D02*
X-3043774Y+1347360D01*
X-3023454Y+1347360D02*
X-3018374Y+1347360D01*
X-3003134Y+1347360D02*
X-2992974Y+1347360D01*
X-2987894Y+1347360D02*
X-2982814Y+1347360D01*
X-2967574Y+1347360D02*
X-2947254Y+1347360D01*
X-3048854Y+1352440D02*
X-3043774Y+1352440D01*
X-3023454Y+1352440D02*
X-3018374Y+1352440D01*
X-3003134Y+1352440D02*
X-2998054Y+1352440D01*
X-2987894Y+1352440D02*
X-2982814Y+1352440D01*
X-2972654Y+1352440D02*
X-2962494Y+1352440D01*
X-2952334Y+1352440D02*
X-2947254Y+1352440D01*
X-3048854Y+1357520D02*
X-3043774Y+1357520D01*
X-3023454Y+1357520D02*
X-3018374Y+1357520D01*
X-3008214Y+1357520D02*
X-2998054Y+1357520D01*
X-2987894Y+1357520D02*
X-2982814Y+1357520D01*
X-2972654Y+1357520D02*
X-2967574Y+1357520D01*
X-2952334Y+1357520D02*
X-2947254Y+1357520D01*
X-3048854Y+1362600D02*
X-3043774Y+1362600D01*
X-3023454Y+1362600D02*
X-3003134Y+1362600D01*
X-2987894Y+1362600D02*
X-2982814Y+1362600D01*
X-2972654Y+1362600D02*
X-2967574Y+1362600D01*
X-2957414Y+1362600D02*
X-2947254Y+1362600D01*
X-3048854Y+1367680D02*
X-3043774Y+1367680D01*
X-3023454Y+1367680D02*
X-3018374Y+1367680D01*
X-3008214Y+1367680D02*
X-2998054Y+1367680D01*
X-2987894Y+1367680D02*
X-2982814Y+1367680D01*
X-2972654Y+1367680D02*
X-2967574Y+1367680D01*
X-2957414Y+1367680D02*
X-2947254Y+1367680D01*
X-3048854Y+1372760D02*
X-3043774Y+1372760D01*
X-3023454Y+1372760D02*
X-3018374Y+1372760D01*
X-3003134Y+1372760D02*
X-2998054Y+1372760D01*
X-2987894Y+1372760D02*
X-2982814Y+1372760D01*
X-2972654Y+1372760D02*
X-2967574Y+1372760D01*
X-3048854Y+1377840D02*
X-3043774Y+1377840D01*
X-3023454Y+1377840D02*
X-3018374Y+1377840D01*
X-3003134Y+1377840D02*
X-2998054Y+1377840D01*
X-2987894Y+1377840D02*
X-2982814Y+1377840D01*
X-2972654Y+1377840D02*
X-2967574Y+1377840D01*
X-3048854Y+1382920D02*
X-3043774Y+1382920D01*
X-3023454Y+1382920D02*
X-3018374Y+1382920D01*
X-3003134Y+1382920D02*
X-2998054Y+1382920D01*
X-2987894Y+1382920D02*
X-2982814Y+1382920D01*
X-2972654Y+1382920D02*
X-2962494Y+1382920D01*
X-3064094Y+1388000D02*
X-3033614Y+1388000D01*
X-3023454Y+1388000D02*
X-3003134Y+1388000D01*
X-2987894Y+1388000D02*
X-2982814Y+1388000D01*
X-2967574Y+1388000D02*
X-2947254Y+1388000D01*
X-3014311Y+1824340D02*
X-2993991Y+1824340D01*
X-2983831Y+1824340D02*
X-2978751Y+1824340D01*
X-2963511Y+1824340D02*
X-2953351Y+1824340D01*
X-2943191Y+1824340D02*
X-2917791Y+1824340D01*
X-3019391Y+1829420D02*
X-3009231Y+1829420D01*
X-2999071Y+1829420D02*
X-2993991Y+1829420D01*
X-2983831Y+1829420D02*
X-2978751Y+1829420D01*
X-2963511Y+1829420D02*
X-2953351Y+1829420D01*
X-2943191Y+1829420D02*
X-2938111Y+1829420D01*
X-2922871Y+1829420D02*
X-2917791Y+1829420D01*
X-3019391Y+1834500D02*
X-3014311Y+1834500D01*
X-2999071Y+1834500D02*
X-2993991Y+1834500D01*
X-2983831Y+1834500D02*
X-2978751Y+1834500D01*
X-2968591Y+1834500D02*
X-2963511Y+1834500D01*
X-2958431Y+1834500D02*
X-2953351Y+1834500D01*
X-2943191Y+1834500D02*
X-2938111Y+1834500D01*
X-2922871Y+1834500D02*
X-2912711Y+1834500D01*
X-3019391Y+1839580D02*
X-3014311Y+1839580D01*
X-3004151Y+1839580D02*
X-2993991Y+1839580D01*
X-2983831Y+1839580D02*
X-2978751Y+1839580D01*
X-2968591Y+1839580D02*
X-2963511Y+1839580D01*
X-2958431Y+1839580D02*
X-2953351Y+1839580D01*
X-2943191Y+1839580D02*
X-2938111Y+1839580D01*
X-2922871Y+1839580D02*
X-2912711Y+1839580D01*
X-3019391Y+1844660D02*
X-3014311Y+1844660D01*
X-3004151Y+1844660D02*
X-2993991Y+1844660D01*
X-2983831Y+1844660D02*
X-2978751Y+1844660D01*
X-2973671Y+1844660D02*
X-2968591Y+1844660D01*
X-2958431Y+1844660D02*
X-2953351Y+1844660D01*
X-2943191Y+1844660D02*
X-2938111Y+1844660D01*
X-2922871Y+1844660D02*
X-2912711Y+1844660D01*
X-3019391Y+1849740D02*
X-3014311Y+1849740D01*
X-2983831Y+1849740D02*
X-2978751Y+1849740D01*
X-2973671Y+1849740D02*
X-2968591Y+1849740D01*
X-2958431Y+1849740D02*
X-2953351Y+1849740D01*
X-2943191Y+1849740D02*
X-2938111Y+1849740D01*
X-2922871Y+1849740D02*
X-2912711Y+1849740D01*
X-3019391Y+1854820D02*
X-3014311Y+1854820D01*
X-2983831Y+1854820D02*
X-2973671Y+1854820D01*
X-2958431Y+1854820D02*
X-2953351Y+1854820D01*
X-2943191Y+1854820D02*
X-2938111Y+1854820D01*
X-2922871Y+1854820D02*
X-2912711Y+1854820D01*
X-3019391Y+1859900D02*
X-3009231Y+1859900D01*
X-2983831Y+1859900D02*
X-2973671Y+1859900D01*
X-2958431Y+1859900D02*
X-2953351Y+1859900D01*
X-2943191Y+1859900D02*
X-2938111Y+1859900D01*
X-2922871Y+1859900D02*
X-2917791Y+1859900D01*
X-3014311Y+1864980D02*
X-2993991Y+1864980D01*
X-2983831Y+1864980D02*
X-2978751Y+1864980D01*
X-2958431Y+1864980D02*
X-2953351Y+1864980D01*
X-2943191Y+1864980D02*
X-2922871Y+1864980D01*
X+2713040Y-817678D02*
X+2718120Y-817678D01*
X+2743520Y-817678D02*
X+2763840Y-817678D01*
X+2774000Y-817678D02*
X+2794320Y-817678D01*
X+2707960Y-812598D02*
X+2718120Y-812598D01*
X+2738440Y-812598D02*
X+2743520Y-812598D01*
X+2768920Y-812598D02*
X+2774000Y-812598D01*
X+2707960Y-807518D02*
X+2713040Y-807518D01*
X+2718120Y-807518D02*
X+2723200Y-807518D01*
X+2738440Y-807518D02*
X+2743520Y-807518D01*
X+2768920Y-807518D02*
X+2774000Y-807518D01*
X+2702880Y-802438D02*
X+2707960Y-802438D01*
X+2718120Y-802438D02*
X+2723200Y-802438D01*
X+2738440Y-802438D02*
X+2743520Y-802438D01*
X+2768920Y-802438D02*
X+2774000Y-802438D01*
X+2702880Y-797358D02*
X+2707960Y-797358D01*
X+2718120Y-797358D02*
X+2723200Y-797358D01*
X+2738440Y-797358D02*
X+2743520Y-797358D01*
X+2768920Y-797358D02*
X+2774000Y-797358D01*
X+2702880Y-792278D02*
X+2707960Y-792278D01*
X+2723200Y-792278D02*
X+2728280Y-792278D01*
X+2738440Y-792278D02*
X+2743520Y-792278D01*
X+2768920Y-792278D02*
X+2774000Y-792278D01*
X+2702880Y-787198D02*
X+2707960Y-787198D01*
X+2723200Y-787198D02*
X+2728280Y-787198D01*
X+2738440Y-787198D02*
X+2743520Y-787198D01*
X+2768920Y-787198D02*
X+2774000Y-787198D01*
X+2697800Y-782118D02*
X+2702880Y-782118D01*
X+2723200Y-782118D02*
X+2728280Y-782118D01*
X+2738440Y-782118D02*
X+2743520Y-782118D01*
X+2768920Y-782118D02*
X+2774000Y-782118D01*
X+2697800Y-777038D02*
X+2702880Y-777038D01*
X+2743520Y-777038D02*
X+2763840Y-777038D01*
X+2774000Y-777038D02*
X+2794320Y-777038D01*
X+2692040Y-342380D02*
X+2717440Y-342380D01*
X+2727600Y-342380D02*
X+2747920Y-342380D01*
X+2753000Y-342380D02*
X+2758080Y-342380D01*
X+2773320Y-342380D02*
X+2783480Y-342380D01*
X+2798720Y-342380D02*
X+2819040Y-342380D01*
X+2692040Y-337300D02*
X+2697120Y-337300D01*
X+2722520Y-337300D02*
X+2732680Y-337300D01*
X+2753000Y-337300D02*
X+2758080Y-337300D01*
X+2773320Y-337300D02*
X+2783480Y-337300D01*
X+2793640Y-337300D02*
X+2803800Y-337300D01*
X+2813960Y-337300D02*
X+2824120Y-337300D01*
X+2692040Y-332220D02*
X+2697120Y-332220D01*
X+2722520Y-332220D02*
X+2727600Y-332220D01*
X+2753000Y-332220D02*
X+2758080Y-332220D01*
X+2773320Y-332220D02*
X+2783480Y-332220D01*
X+2793640Y-332220D02*
X+2798720Y-332220D01*
X+2813960Y-332220D02*
X+2824120Y-332220D01*
X+2692040Y-327140D02*
X+2697120Y-327140D01*
X+2722520Y-327140D02*
X+2727600Y-327140D01*
X+2753000Y-327140D02*
X+2758080Y-327140D01*
X+2773320Y-327140D02*
X+2783480Y-327140D01*
X+2793640Y-327140D02*
X+2798720Y-327140D01*
X+2819040Y-327140D02*
X+2824120Y-327140D01*
X+2692040Y-322060D02*
X+2712360Y-322060D01*
X+2722520Y-322060D02*
X+2727600Y-322060D01*
X+2753000Y-322060D02*
X+2783480Y-322060D01*
X+2793640Y-322060D02*
X+2798720Y-322060D01*
X+2819040Y-322060D02*
X+2824120Y-322060D01*
X+2692040Y-316980D02*
X+2697120Y-316980D01*
X+2722520Y-316980D02*
X+2727600Y-316980D01*
X+2753000Y-316980D02*
X+2758080Y-316980D01*
X+2773320Y-316980D02*
X+2783480Y-316980D01*
X+2793640Y-316980D02*
X+2798720Y-316980D01*
X+2819040Y-316980D02*
X+2824120Y-316980D01*
X+2692040Y-311900D02*
X+2697120Y-311900D01*
X+2722520Y-311900D02*
X+2727600Y-311900D01*
X+2753000Y-311900D02*
X+2758080Y-311900D01*
X+2773320Y-311900D02*
X+2783480Y-311900D01*
X+2793640Y-311900D02*
X+2798720Y-311900D01*
X+2813960Y-311900D02*
X+2824120Y-311900D01*
X+2692040Y-306820D02*
X+2697120Y-306820D01*
X+2722520Y-306820D02*
X+2732680Y-306820D01*
X+2753000Y-306820D02*
X+2758080Y-306820D01*
X+2773320Y-306820D02*
X+2783480Y-306820D01*
X+2793640Y-306820D02*
X+2803800Y-306820D01*
X+2813960Y-306820D02*
X+2819040Y-306820D01*
X+2692040Y-301740D02*
X+2717440Y-301740D01*
X+2727600Y-301740D02*
X+2747920Y-301740D01*
X+2753000Y-301740D02*
X+2758080Y-301740D01*
X+2773320Y-301740D02*
X+2783480Y-301740D01*
X+2798720Y-301740D02*
X+2813960Y-301740D01*
X+2691149Y-577640D02*
X+2696229Y-577640D01*
X+2716549Y-577640D02*
X+2721629Y-577640D01*
X+2736869Y-577640D02*
X+2747029Y-577640D01*
X+2752109Y-577640D02*
X+2757189Y-577640D01*
X+2772429Y-577640D02*
X+2792749Y-577640D01*
X+2691149Y-572560D02*
X+2696229Y-572560D01*
X+2716549Y-572560D02*
X+2721629Y-572560D01*
X+2736869Y-572560D02*
X+2741949Y-572560D01*
X+2752109Y-572560D02*
X+2757189Y-572560D01*
X+2767349Y-572560D02*
X+2777509Y-572560D01*
X+2787669Y-572560D02*
X+2792749Y-572560D01*
X+2691149Y-567480D02*
X+2696229Y-567480D01*
X+2716549Y-567480D02*
X+2721629Y-567480D01*
X+2731789Y-567480D02*
X+2741949Y-567480D01*
X+2752109Y-567480D02*
X+2757189Y-567480D01*
X+2767349Y-567480D02*
X+2772429Y-567480D01*
X+2787669Y-567480D02*
X+2792749Y-567480D01*
X+2691149Y-562400D02*
X+2696229Y-562400D01*
X+2716549Y-562400D02*
X+2736869Y-562400D01*
X+2752109Y-562400D02*
X+2757189Y-562400D01*
X+2767349Y-562400D02*
X+2772429Y-562400D01*
X+2782589Y-562400D02*
X+2792749Y-562400D01*
X+2691149Y-557320D02*
X+2696229Y-557320D01*
X+2716549Y-557320D02*
X+2721629Y-557320D01*
X+2731789Y-557320D02*
X+2741949Y-557320D01*
X+2752109Y-557320D02*
X+2757189Y-557320D01*
X+2767349Y-557320D02*
X+2772429Y-557320D01*
X+2782589Y-557320D02*
X+2792749Y-557320D01*
X+2691149Y-552240D02*
X+2696229Y-552240D01*
X+2716549Y-552240D02*
X+2721629Y-552240D01*
X+2736869Y-552240D02*
X+2741949Y-552240D01*
X+2752109Y-552240D02*
X+2757189Y-552240D01*
X+2767349Y-552240D02*
X+2772429Y-552240D01*
X+2691149Y-547160D02*
X+2696229Y-547160D01*
X+2716549Y-547160D02*
X+2721629Y-547160D01*
X+2736869Y-547160D02*
X+2741949Y-547160D01*
X+2752109Y-547160D02*
X+2757189Y-547160D01*
X+2767349Y-547160D02*
X+2772429Y-547160D01*
X+2691149Y-542080D02*
X+2696229Y-542080D01*
X+2716549Y-542080D02*
X+2721629Y-542080D01*
X+2736869Y-542080D02*
X+2741949Y-542080D01*
X+2752109Y-542080D02*
X+2757189Y-542080D01*
X+2767349Y-542080D02*
X+2777509Y-542080D01*
X+2675909Y-537000D02*
X+2706389Y-537000D01*
X+2716549Y-537000D02*
X+2736869Y-537000D01*
X+2752109Y-537000D02*
X+2757189Y-537000D01*
X+2772429Y-537000D02*
X+2792749Y-537000D01*
X+2711593Y-62900D02*
X+2731913Y-62900D01*
X+2742073Y-62900D02*
X+2747153Y-62900D01*
X+2762393Y-62900D02*
X+2772553Y-62900D01*
X+2782713Y-62900D02*
X+2808113Y-62900D01*
X+2706513Y-57820D02*
X+2716673Y-57820D01*
X+2726833Y-57820D02*
X+2731913Y-57820D01*
X+2742073Y-57820D02*
X+2747153Y-57820D01*
X+2762393Y-57820D02*
X+2772553Y-57820D01*
X+2782713Y-57820D02*
X+2787793Y-57820D01*
X+2803033Y-57820D02*
X+2808113Y-57820D01*
X+2706513Y-52740D02*
X+2711593Y-52740D01*
X+2726833Y-52740D02*
X+2731913Y-52740D01*
X+2742073Y-52740D02*
X+2747153Y-52740D01*
X+2757313Y-52740D02*
X+2762393Y-52740D01*
X+2767473Y-52740D02*
X+2772553Y-52740D01*
X+2782713Y-52740D02*
X+2787793Y-52740D01*
X+2803033Y-52740D02*
X+2813193Y-52740D01*
X+2706513Y-47660D02*
X+2711593Y-47660D01*
X+2721753Y-47660D02*
X+2731913Y-47660D01*
X+2742073Y-47660D02*
X+2747153Y-47660D01*
X+2757313Y-47660D02*
X+2762393Y-47660D01*
X+2767473Y-47660D02*
X+2772553Y-47660D01*
X+2782713Y-47660D02*
X+2787793Y-47660D01*
X+2803033Y-47660D02*
X+2813193Y-47660D01*
X+2706513Y-42580D02*
X+2711593Y-42580D01*
X+2721753Y-42580D02*
X+2731913Y-42580D01*
X+2742073Y-42580D02*
X+2747153Y-42580D01*
X+2752233Y-42580D02*
X+2757313Y-42580D01*
X+2767473Y-42580D02*
X+2772553Y-42580D01*
X+2782713Y-42580D02*
X+2787793Y-42580D01*
X+2803033Y-42580D02*
X+2813193Y-42580D01*
X+2706513Y-37500D02*
X+2711593Y-37500D01*
X+2742073Y-37500D02*
X+2747153Y-37500D01*
X+2752233Y-37500D02*
X+2757313Y-37500D01*
X+2767473Y-37500D02*
X+2772553Y-37500D01*
X+2782713Y-37500D02*
X+2787793Y-37500D01*
X+2803033Y-37500D02*
X+2813193Y-37500D01*
X+2706513Y-32420D02*
X+2711593Y-32420D01*
X+2742073Y-32420D02*
X+2752233Y-32420D01*
X+2767473Y-32420D02*
X+2772553Y-32420D01*
X+2782713Y-32420D02*
X+2787793Y-32420D01*
X+2803033Y-32420D02*
X+2813193Y-32420D01*
X+2706513Y-27340D02*
X+2716673Y-27340D01*
X+2742073Y-27340D02*
X+2752233Y-27340D01*
X+2767473Y-27340D02*
X+2772553Y-27340D01*
X+2782713Y-27340D02*
X+2787793Y-27340D01*
X+2803033Y-27340D02*
X+2808113Y-27340D01*
X+2711593Y-22260D02*
X+2731913Y-22260D01*
X+2742073Y-22260D02*
X+2747153Y-22260D01*
X+2767473Y-22260D02*
X+2772553Y-22260D01*
X+2782713Y-22260D02*
X+2803033Y-22260D01*
X+2713040Y-2282418D02*
X+2718120Y-2282418D01*
X+2743520Y-2282418D02*
X+2763840Y-2282418D01*
X+2774000Y-2282418D02*
X+2794320Y-2282418D01*
X+2707960Y-2277338D02*
X+2718120Y-2277338D01*
X+2738440Y-2277338D02*
X+2743520Y-2277338D01*
X+2768920Y-2277338D02*
X+2774000Y-2277338D01*
X+2707960Y-2272258D02*
X+2713040Y-2272258D01*
X+2718120Y-2272258D02*
X+2723200Y-2272258D01*
X+2738440Y-2272258D02*
X+2743520Y-2272258D01*
X+2768920Y-2272258D02*
X+2774000Y-2272258D01*
X+2702880Y-2267178D02*
X+2707960Y-2267178D01*
X+2718120Y-2267178D02*
X+2723200Y-2267178D01*
X+2738440Y-2267178D02*
X+2743520Y-2267178D01*
X+2768920Y-2267178D02*
X+2774000Y-2267178D01*
X+2702880Y-2262098D02*
X+2707960Y-2262098D01*
X+2718120Y-2262098D02*
X+2723200Y-2262098D01*
X+2738440Y-2262098D02*
X+2743520Y-2262098D01*
X+2768920Y-2262098D02*
X+2774000Y-2262098D01*
X+2702880Y-2257018D02*
X+2707960Y-2257018D01*
X+2723200Y-2257018D02*
X+2728280Y-2257018D01*
X+2738440Y-2257018D02*
X+2743520Y-2257018D01*
X+2768920Y-2257018D02*
X+2774000Y-2257018D01*
X+2702880Y-2251938D02*
X+2707960Y-2251938D01*
X+2723200Y-2251938D02*
X+2728280Y-2251938D01*
X+2738440Y-2251938D02*
X+2743520Y-2251938D01*
X+2768920Y-2251938D02*
X+2774000Y-2251938D01*
X+2697800Y-2246858D02*
X+2702880Y-2246858D01*
X+2723200Y-2246858D02*
X+2728280Y-2246858D01*
X+2738440Y-2246858D02*
X+2743520Y-2246858D01*
X+2768920Y-2246858D02*
X+2774000Y-2246858D01*
X+2697800Y-2241778D02*
X+2702880Y-2241778D01*
X+2743520Y-2241778D02*
X+2763840Y-2241778D01*
X+2774000Y-2241778D02*
X+2794320Y-2241778D01*
X+2692040Y-1777640D02*
X+2717440Y-1777640D01*
X+2727600Y-1777640D02*
X+2747920Y-1777640D01*
X+2753000Y-1777640D02*
X+2758080Y-1777640D01*
X+2773320Y-1777640D02*
X+2783480Y-1777640D01*
X+2798720Y-1777640D02*
X+2819040Y-1777640D01*
X+2692040Y-1772560D02*
X+2697120Y-1772560D01*
X+2722520Y-1772560D02*
X+2732680Y-1772560D01*
X+2753000Y-1772560D02*
X+2758080Y-1772560D01*
X+2773320Y-1772560D02*
X+2783480Y-1772560D01*
X+2793640Y-1772560D02*
X+2803800Y-1772560D01*
X+2813960Y-1772560D02*
X+2824120Y-1772560D01*
X+2692040Y-1767480D02*
X+2697120Y-1767480D01*
X+2722520Y-1767480D02*
X+2727600Y-1767480D01*
X+2753000Y-1767480D02*
X+2758080Y-1767480D01*
X+2773320Y-1767480D02*
X+2783480Y-1767480D01*
X+2793640Y-1767480D02*
X+2798720Y-1767480D01*
X+2813960Y-1767480D02*
X+2824120Y-1767480D01*
X+2692040Y-1762400D02*
X+2697120Y-1762400D01*
X+2722520Y-1762400D02*
X+2727600Y-1762400D01*
X+2753000Y-1762400D02*
X+2758080Y-1762400D01*
X+2773320Y-1762400D02*
X+2783480Y-1762400D01*
X+2793640Y-1762400D02*
X+2798720Y-1762400D01*
X+2819040Y-1762400D02*
X+2824120Y-1762400D01*
X+2692040Y-1757320D02*
X+2712360Y-1757320D01*
X+2722520Y-1757320D02*
X+2727600Y-1757320D01*
X+2753000Y-1757320D02*
X+2783480Y-1757320D01*
X+2793640Y-1757320D02*
X+2798720Y-1757320D01*
X+2819040Y-1757320D02*
X+2824120Y-1757320D01*
X+2692040Y-1752240D02*
X+2697120Y-1752240D01*
X+2722520Y-1752240D02*
X+2727600Y-1752240D01*
X+2753000Y-1752240D02*
X+2758080Y-1752240D01*
X+2773320Y-1752240D02*
X+2783480Y-1752240D01*
X+2793640Y-1752240D02*
X+2798720Y-1752240D01*
X+2819040Y-1752240D02*
X+2824120Y-1752240D01*
X+2692040Y-1747160D02*
X+2697120Y-1747160D01*
X+2722520Y-1747160D02*
X+2727600Y-1747160D01*
X+2753000Y-1747160D02*
X+2758080Y-1747160D01*
X+2773320Y-1747160D02*
X+2783480Y-1747160D01*
X+2793640Y-1747160D02*
X+2798720Y-1747160D01*
X+2813960Y-1747160D02*
X+2824120Y-1747160D01*
X+2692040Y-1742080D02*
X+2697120Y-1742080D01*
X+2722520Y-1742080D02*
X+2732680Y-1742080D01*
X+2753000Y-1742080D02*
X+2758080Y-1742080D01*
X+2773320Y-1742080D02*
X+2783480Y-1742080D01*
X+2793640Y-1742080D02*
X+2803800Y-1742080D01*
X+2813960Y-1742080D02*
X+2819040Y-1742080D01*
X+2692040Y-1737000D02*
X+2717440Y-1737000D01*
X+2727600Y-1737000D02*
X+2747920Y-1737000D01*
X+2753000Y-1737000D02*
X+2758080Y-1737000D01*
X+2773320Y-1737000D02*
X+2783480Y-1737000D01*
X+2798720Y-1737000D02*
X+2813960Y-1737000D01*
X+2691149Y-2027640D02*
X+2696229Y-2027640D01*
X+2716549Y-2027640D02*
X+2721629Y-2027640D01*
X+2736869Y-2027640D02*
X+2747029Y-2027640D01*
X+2752109Y-2027640D02*
X+2757189Y-2027640D01*
X+2772429Y-2027640D02*
X+2792749Y-2027640D01*
X+2691149Y-2022560D02*
X+2696229Y-2022560D01*
X+2716549Y-2022560D02*
X+2721629Y-2022560D01*
X+2736869Y-2022560D02*
X+2741949Y-2022560D01*
X+2752109Y-2022560D02*
X+2757189Y-2022560D01*
X+2767349Y-2022560D02*
X+2777509Y-2022560D01*
X+2787669Y-2022560D02*
X+2792749Y-2022560D01*
X+2691149Y-2017480D02*
X+2696229Y-2017480D01*
X+2716549Y-2017480D02*
X+2721629Y-2017480D01*
X+2731789Y-2017480D02*
X+2741949Y-2017480D01*
X+2752109Y-2017480D02*
X+2757189Y-2017480D01*
X+2767349Y-2017480D02*
X+2772429Y-2017480D01*
X+2787669Y-2017480D02*
X+2792749Y-2017480D01*
X+2691149Y-2012400D02*
X+2696229Y-2012400D01*
X+2716549Y-2012400D02*
X+2736869Y-2012400D01*
X+2752109Y-2012400D02*
X+2757189Y-2012400D01*
X+2767349Y-2012400D02*
X+2772429Y-2012400D01*
X+2782589Y-2012400D02*
X+2792749Y-2012400D01*
X+2691149Y-2007320D02*
X+2696229Y-2007320D01*
X+2716549Y-2007320D02*
X+2721629Y-2007320D01*
X+2731789Y-2007320D02*
X+2741949Y-2007320D01*
X+2752109Y-2007320D02*
X+2757189Y-2007320D01*
X+2767349Y-2007320D02*
X+2772429Y-2007320D01*
X+2782589Y-2007320D02*
X+2792749Y-2007320D01*
X+2691149Y-2002240D02*
X+2696229Y-2002240D01*
X+2716549Y-2002240D02*
X+2721629Y-2002240D01*
X+2736869Y-2002240D02*
X+2741949Y-2002240D01*
X+2752109Y-2002240D02*
X+2757189Y-2002240D01*
X+2767349Y-2002240D02*
X+2772429Y-2002240D01*
X+2691149Y-1997160D02*
X+2696229Y-1997160D01*
X+2716549Y-1997160D02*
X+2721629Y-1997160D01*
X+2736869Y-1997160D02*
X+2741949Y-1997160D01*
X+2752109Y-1997160D02*
X+2757189Y-1997160D01*
X+2767349Y-1997160D02*
X+2772429Y-1997160D01*
X+2691149Y-1992080D02*
X+2696229Y-1992080D01*
X+2716549Y-1992080D02*
X+2721629Y-1992080D01*
X+2736869Y-1992080D02*
X+2741949Y-1992080D01*
X+2752109Y-1992080D02*
X+2757189Y-1992080D01*
X+2767349Y-1992080D02*
X+2777509Y-1992080D01*
X+2675909Y-1987000D02*
X+2706389Y-1987000D01*
X+2716549Y-1987000D02*
X+2736869Y-1987000D01*
X+2752109Y-1987000D02*
X+2757189Y-1987000D01*
X+2772429Y-1987000D02*
X+2792749Y-1987000D01*
X+2711593Y-1512900D02*
X+2731913Y-1512900D01*
X+2742073Y-1512900D02*
X+2747153Y-1512900D01*
X+2762393Y-1512900D02*
X+2772553Y-1512900D01*
X+2782713Y-1512900D02*
X+2808113Y-1512900D01*
X+2706513Y-1507820D02*
X+2716673Y-1507820D01*
X+2726833Y-1507820D02*
X+2731913Y-1507820D01*
X+2742073Y-1507820D02*
X+2747153Y-1507820D01*
X+2762393Y-1507820D02*
X+2772553Y-1507820D01*
X+2782713Y-1507820D02*
X+2787793Y-1507820D01*
X+2803033Y-1507820D02*
X+2808113Y-1507820D01*
X+2706513Y-1502740D02*
X+2711593Y-1502740D01*
X+2726833Y-1502740D02*
X+2731913Y-1502740D01*
X+2742073Y-1502740D02*
X+2747153Y-1502740D01*
X+2757313Y-1502740D02*
X+2762393Y-1502740D01*
X+2767473Y-1502740D02*
X+2772553Y-1502740D01*
X+2782713Y-1502740D02*
X+2787793Y-1502740D01*
X+2803033Y-1502740D02*
X+2813193Y-1502740D01*
X+2706513Y-1497660D02*
X+2711593Y-1497660D01*
X+2721753Y-1497660D02*
X+2731913Y-1497660D01*
X+2742073Y-1497660D02*
X+2747153Y-1497660D01*
X+2757313Y-1497660D02*
X+2762393Y-1497660D01*
X+2767473Y-1497660D02*
X+2772553Y-1497660D01*
X+2782713Y-1497660D02*
X+2787793Y-1497660D01*
X+2803033Y-1497660D02*
X+2813193Y-1497660D01*
X+2706513Y-1492580D02*
X+2711593Y-1492580D01*
X+2721753Y-1492580D02*
X+2731913Y-1492580D01*
X+2742073Y-1492580D02*
X+2747153Y-1492580D01*
X+2752233Y-1492580D02*
X+2757313Y-1492580D01*
X+2767473Y-1492580D02*
X+2772553Y-1492580D01*
X+2782713Y-1492580D02*
X+2787793Y-1492580D01*
X+2803033Y-1492580D02*
X+2813193Y-1492580D01*
X+2706513Y-1487500D02*
X+2711593Y-1487500D01*
X+2742073Y-1487500D02*
X+2747153Y-1487500D01*
X+2752233Y-1487500D02*
X+2757313Y-1487500D01*
X+2767473Y-1487500D02*
X+2772553Y-1487500D01*
X+2782713Y-1487500D02*
X+2787793Y-1487500D01*
X+2803033Y-1487500D02*
X+2813193Y-1487500D01*
X+2706513Y-1482420D02*
X+2711593Y-1482420D01*
X+2742073Y-1482420D02*
X+2752233Y-1482420D01*
X+2767473Y-1482420D02*
X+2772553Y-1482420D01*
X+2782713Y-1482420D02*
X+2787793Y-1482420D01*
X+2803033Y-1482420D02*
X+2813193Y-1482420D01*
X+2706513Y-1477340D02*
X+2716673Y-1477340D01*
X+2742073Y-1477340D02*
X+2752233Y-1477340D01*
X+2767473Y-1477340D02*
X+2772553Y-1477340D01*
X+2782713Y-1477340D02*
X+2787793Y-1477340D01*
X+2803033Y-1477340D02*
X+2808113Y-1477340D01*
X+2711593Y-1472260D02*
X+2731913Y-1472260D01*
X+2742073Y-1472260D02*
X+2747153Y-1472260D01*
X+2767473Y-1472260D02*
X+2772553Y-1472260D01*
X+2782713Y-1472260D02*
X+2803033Y-1472260D01*
X+2699628Y+1682322D02*
X+2719948Y+1682322D01*
X+2730108Y+1682322D02*
X+2750428Y+1682322D01*
X+2760588Y+1682322D02*
X+2765668Y+1682322D01*
X+2719948Y+1687402D02*
X+2725028Y+1687402D01*
X+2730108Y+1687402D02*
X+2735188Y+1687402D01*
X+2750428Y+1687402D02*
X+2755508Y+1687402D01*
X+2760588Y+1687402D02*
X+2765668Y+1687402D01*
X+2785988Y+1687402D02*
X+2791068Y+1687402D01*
X+2719948Y+1692482D02*
X+2725028Y+1692482D01*
X+2730108Y+1692482D02*
X+2735188Y+1692482D01*
X+2755508Y+1692482D02*
X+2760588Y+1692482D01*
X+2765668Y+1692482D02*
X+2770748Y+1692482D01*
X+2785988Y+1692482D02*
X+2791068Y+1692482D01*
X+2714868Y+1697562D02*
X+2719948Y+1697562D01*
X+2730108Y+1697562D02*
X+2735188Y+1697562D01*
X+2755508Y+1697562D02*
X+2760588Y+1697562D01*
X+2765668Y+1697562D02*
X+2791068Y+1697562D01*
X+2704708Y+1702642D02*
X+2714868Y+1702642D01*
X+2730108Y+1702642D02*
X+2735188Y+1702642D01*
X+2755508Y+1702642D02*
X+2760588Y+1702642D01*
X+2765668Y+1702642D02*
X+2770748Y+1702642D01*
X+2780908Y+1702642D02*
X+2785988Y+1702642D01*
X+2699628Y+1707722D02*
X+2704708Y+1707722D01*
X+2730108Y+1707722D02*
X+2735188Y+1707722D01*
X+2755508Y+1707722D02*
X+2760588Y+1707722D01*
X+2765668Y+1707722D02*
X+2770748Y+1707722D01*
X+2780908Y+1707722D02*
X+2785988Y+1707722D01*
X+2699628Y+1712802D02*
X+2704708Y+1712802D01*
X+2730108Y+1712802D02*
X+2735188Y+1712802D01*
X+2750428Y+1712802D02*
X+2755508Y+1712802D01*
X+2770748Y+1712802D02*
X+2775828Y+1712802D01*
X+2780908Y+1712802D02*
X+2785988Y+1712802D01*
X+2699628Y+1717882D02*
X+2704708Y+1717882D01*
X+2730108Y+1717882D02*
X+2735188Y+1717882D01*
X+2750428Y+1717882D02*
X+2755508Y+1717882D01*
X+2770748Y+1717882D02*
X+2780908Y+1717882D01*
X+2704708Y+1722962D02*
X+2719948Y+1722962D01*
X+2730108Y+1722962D02*
X+2750428Y+1722962D01*
X+2775828Y+1722962D02*
X+2780908Y+1722962D01*
X+2716080Y+1907620D02*
X+2736400Y+1907620D01*
X+2751640Y+1907620D02*
X+2771960Y+1907620D01*
X+2777040Y+1907620D02*
X+2802440Y+1907620D01*
X+2731320Y+1912700D02*
X+2741480Y+1912700D01*
X+2746560Y+1912700D02*
X+2756720Y+1912700D01*
X+2777040Y+1912700D02*
X+2782120Y+1912700D01*
X+2736400Y+1917780D02*
X+2741480Y+1917780D01*
X+2746560Y+1917780D02*
X+2751640Y+1917780D01*
X+2777040Y+1917780D02*
X+2782120Y+1917780D01*
X+2731320Y+1922860D02*
X+2741480Y+1922860D01*
X+2746560Y+1922860D02*
X+2751640Y+1922860D01*
X+2777040Y+1922860D02*
X+2782120Y+1922860D01*
X+2716080Y+1927940D02*
X+2736400Y+1927940D01*
X+2746560Y+1927940D02*
X+2751640Y+1927940D01*
X+2777040Y+1927940D02*
X+2782120Y+1927940D01*
X+2716080Y+1933020D02*
X+2721160Y+1933020D01*
X+2746560Y+1933020D02*
X+2751640Y+1933020D01*
X+2777040Y+1933020D02*
X+2782120Y+1933020D01*
X+2716080Y+1938100D02*
X+2721160Y+1938100D01*
X+2746560Y+1938100D02*
X+2751640Y+1938100D01*
X+2777040Y+1938100D02*
X+2782120Y+1938100D01*
X+2716080Y+1943180D02*
X+2721160Y+1943180D01*
X+2746560Y+1943180D02*
X+2756720Y+1943180D01*
X+2777040Y+1943180D02*
X+2782120Y+1943180D01*
X+2721160Y+1948260D02*
X+2736400Y+1948260D01*
X+2751640Y+1948260D02*
X+2771960Y+1948260D01*
X+2777040Y+1948260D02*
X+2782120Y+1948260D01*
X+2689993Y+2122360D02*
X+2710313Y+2122360D01*
X+2720473Y+2122360D02*
X+2725553Y+2122360D01*
X+2740793Y+2122360D02*
X+2750953Y+2122360D01*
X+2761113Y+2122360D02*
X+2786513Y+2122360D01*
X+2684913Y+2127440D02*
X+2695073Y+2127440D01*
X+2705233Y+2127440D02*
X+2710313Y+2127440D01*
X+2720473Y+2127440D02*
X+2725553Y+2127440D01*
X+2740793Y+2127440D02*
X+2750953Y+2127440D01*
X+2761113Y+2127440D02*
X+2766193Y+2127440D01*
X+2781433Y+2127440D02*
X+2786513Y+2127440D01*
X+2684913Y+2132520D02*
X+2689993Y+2132520D01*
X+2705233Y+2132520D02*
X+2710313Y+2132520D01*
X+2720473Y+2132520D02*
X+2725553Y+2132520D01*
X+2735713Y+2132520D02*
X+2740793Y+2132520D01*
X+2745873Y+2132520D02*
X+2750953Y+2132520D01*
X+2761113Y+2132520D02*
X+2766193Y+2132520D01*
X+2781433Y+2132520D02*
X+2791593Y+2132520D01*
X+2684913Y+2137600D02*
X+2689993Y+2137600D01*
X+2700153Y+2137600D02*
X+2710313Y+2137600D01*
X+2720473Y+2137600D02*
X+2725553Y+2137600D01*
X+2735713Y+2137600D02*
X+2740793Y+2137600D01*
X+2745873Y+2137600D02*
X+2750953Y+2137600D01*
X+2761113Y+2137600D02*
X+2766193Y+2137600D01*
X+2781433Y+2137600D02*
X+2791593Y+2137600D01*
X+2684913Y+2142680D02*
X+2689993Y+2142680D01*
X+2700153Y+2142680D02*
X+2710313Y+2142680D01*
X+2720473Y+2142680D02*
X+2725553Y+2142680D01*
X+2730633Y+2142680D02*
X+2735713Y+2142680D01*
X+2745873Y+2142680D02*
X+2750953Y+2142680D01*
X+2761113Y+2142680D02*
X+2766193Y+2142680D01*
X+2781433Y+2142680D02*
X+2791593Y+2142680D01*
X+2684913Y+2147760D02*
X+2689993Y+2147760D01*
X+2720473Y+2147760D02*
X+2725553Y+2147760D01*
X+2730633Y+2147760D02*
X+2735713Y+2147760D01*
X+2745873Y+2147760D02*
X+2750953Y+2147760D01*
X+2761113Y+2147760D02*
X+2766193Y+2147760D01*
X+2781433Y+2147760D02*
X+2791593Y+2147760D01*
X+2684913Y+2152840D02*
X+2689993Y+2152840D01*
X+2720473Y+2152840D02*
X+2730633Y+2152840D01*
X+2745873Y+2152840D02*
X+2750953Y+2152840D01*
X+2761113Y+2152840D02*
X+2766193Y+2152840D01*
X+2781433Y+2152840D02*
X+2791593Y+2152840D01*
X+2684913Y+2157920D02*
X+2695073Y+2157920D01*
X+2720473Y+2157920D02*
X+2730633Y+2157920D01*
X+2745873Y+2157920D02*
X+2750953Y+2157920D01*
X+2761113Y+2157920D02*
X+2766193Y+2157920D01*
X+2781433Y+2157920D02*
X+2786513Y+2157920D01*
X+2689993Y+2163000D02*
X+2710313Y+2163000D01*
X+2720473Y+2163000D02*
X+2725553Y+2163000D01*
X+2745873Y+2163000D02*
X+2750953Y+2163000D01*
X+2761113Y+2163000D02*
X+2781433Y+2163000D01*
X+2724089Y+2387100D02*
X+2729169Y+2387100D01*
X+2754569Y+2387100D02*
X+2774889Y+2387100D01*
X+2785049Y+2387100D02*
X+2805369Y+2387100D01*
X+2719009Y+2392180D02*
X+2724089Y+2392180D01*
X+2729169Y+2392180D02*
X+2734249Y+2392180D01*
X+2749489Y+2392180D02*
X+2759649Y+2392180D01*
X+2779969Y+2392180D02*
X+2790129Y+2392180D01*
X+2719009Y+2397260D02*
X+2724089Y+2397260D01*
X+2729169Y+2397260D02*
X+2734249Y+2397260D01*
X+2749489Y+2397260D02*
X+2754569Y+2397260D01*
X+2779969Y+2397260D02*
X+2785049Y+2397260D01*
X+2713929Y+2402340D02*
X+2724089Y+2402340D01*
X+2729169Y+2402340D02*
X+2734249Y+2402340D01*
X+2749489Y+2402340D02*
X+2754569Y+2402340D01*
X+2779969Y+2402340D02*
X+2785049Y+2402340D01*
X+2713929Y+2407420D02*
X+2724089Y+2407420D01*
X+2729169Y+2407420D02*
X+2739329Y+2407420D01*
X+2749489Y+2407420D02*
X+2754569Y+2407420D01*
X+2779969Y+2407420D02*
X+2785049Y+2407420D01*
X+2713929Y+2412500D02*
X+2719009Y+2412500D01*
X+2734249Y+2412500D02*
X+2739329Y+2412500D01*
X+2749489Y+2412500D02*
X+2754569Y+2412500D01*
X+2779969Y+2412500D02*
X+2785049Y+2412500D01*
X+2713929Y+2417580D02*
X+2719009Y+2417580D01*
X+2734249Y+2417580D02*
X+2739329Y+2417580D01*
X+2749489Y+2417580D02*
X+2754569Y+2417580D01*
X+2779969Y+2417580D02*
X+2785049Y+2417580D01*
X+2713929Y+2422660D02*
X+2719009Y+2422660D01*
X+2734249Y+2422660D02*
X+2739329Y+2422660D01*
X+2749489Y+2422660D02*
X+2759649Y+2422660D01*
X+2779969Y+2422660D02*
X+2790129Y+2422660D01*
X+2708849Y+2427740D02*
X+2719009Y+2427740D01*
X+2734249Y+2427740D02*
X+2739329Y+2427740D01*
X+2754569Y+2427740D02*
X+2774889Y+2427740D01*
X+2785049Y+2427740D02*
X+2805369Y+2427740D01*
X-3049405Y-1917678D02*
X-3029085Y-1917678D01*
X-3018925Y-1917678D02*
X-3013845Y-1917678D01*
X-2993525Y-1917678D02*
X-2988445Y-1917678D01*
X-2978285Y-1917678D02*
X-2957965Y-1917678D01*
X-3054485Y-1912598D02*
X-3049405Y-1912598D01*
X-3034165Y-1912598D02*
X-3029085Y-1912598D01*
X-3018925Y-1912598D02*
X-3013845Y-1912598D01*
X-2998605Y-1912598D02*
X-2988445Y-1912598D01*
X-2978285Y-1912598D02*
X-2973205Y-1912598D01*
X-2957965Y-1912598D02*
X-2952885Y-1912598D01*
X-3054485Y-1907518D02*
X-3049405Y-1907518D01*
X-3034165Y-1907518D02*
X-3029085Y-1907518D01*
X-3018925Y-1907518D02*
X-3013845Y-1907518D01*
X-3003685Y-1907518D02*
X-2998605Y-1907518D01*
X-2993525Y-1907518D02*
X-2988445Y-1907518D01*
X-2978285Y-1907518D02*
X-2973205Y-1907518D01*
X-2952885Y-1907518D02*
X-2947805Y-1907518D01*
X-3054485Y-1902438D02*
X-3049405Y-1902438D01*
X-3034165Y-1902438D02*
X-3029085Y-1902438D01*
X-3018925Y-1902438D02*
X-3013845Y-1902438D01*
X-3003685Y-1902438D02*
X-2998605Y-1902438D01*
X-2993525Y-1902438D02*
X-2988445Y-1902438D01*
X-2978285Y-1902438D02*
X-2973205Y-1902438D01*
X-2952885Y-1902438D02*
X-2947805Y-1902438D01*
X-3054485Y-1897358D02*
X-3049405Y-1897358D01*
X-3018925Y-1897358D02*
X-3013845Y-1897358D01*
X-3008765Y-1897358D02*
X-3003685Y-1897358D01*
X-2993525Y-1897358D02*
X-2988445Y-1897358D01*
X-2978285Y-1897358D02*
X-2973205Y-1897358D01*
X-2952885Y-1897358D02*
X-2947805Y-1897358D01*
X-3054485Y-1892278D02*
X-3049405Y-1892278D01*
X-3018925Y-1892278D02*
X-3013845Y-1892278D01*
X-3008765Y-1892278D02*
X-3003685Y-1892278D01*
X-2993525Y-1892278D02*
X-2988445Y-1892278D01*
X-2978285Y-1892278D02*
X-2973205Y-1892278D01*
X-2952885Y-1892278D02*
X-2947805Y-1892278D01*
X-3054485Y-1887198D02*
X-3049405Y-1887198D01*
X-3018925Y-1887198D02*
X-3008765Y-1887198D01*
X-2993525Y-1887198D02*
X-2988445Y-1887198D01*
X-2978285Y-1887198D02*
X-2973205Y-1887198D01*
X-2957965Y-1887198D02*
X-2952885Y-1887198D01*
X-3054485Y-1882118D02*
X-3049405Y-1882118D01*
X-3018925Y-1882118D02*
X-3013845Y-1882118D01*
X-2993525Y-1882118D02*
X-2988445Y-1882118D01*
X-2978285Y-1882118D02*
X-2973205Y-1882118D01*
X-2957965Y-1882118D02*
X-2952885Y-1882118D01*
X-3049405Y-1877038D02*
X-3029085Y-1877038D01*
X-3018925Y-1877038D02*
X-3013845Y-1877038D01*
X-2993525Y-1877038D02*
X-2988445Y-1877038D01*
X-2978285Y-1877038D02*
X-2957965Y-1877038D01*
X-3112051Y-2207092D02*
X-3106971Y-2207092D01*
X-3071411Y-2207092D02*
X-3061251Y-2207092D01*
X-3051091Y-2207092D02*
X-3040931Y-2207092D01*
X-3025691Y-2207092D02*
X-3020611Y-2207092D01*
X-2995211Y-2207092D02*
X-2990131Y-2207092D01*
X-2979971Y-2207092D02*
X-2954571Y-2207092D01*
X-3112051Y-2202012D02*
X-3106971Y-2202012D01*
X-3071411Y-2202012D02*
X-3061251Y-2202012D01*
X-3051091Y-2202012D02*
X-3040931Y-2202012D01*
X-3025691Y-2202012D02*
X-3020611Y-2202012D01*
X-2995211Y-2202012D02*
X-2990131Y-2202012D01*
X-2979971Y-2202012D02*
X-2974891Y-2202012D01*
X-3112051Y-2196932D02*
X-3106971Y-2196932D01*
X-3071411Y-2196932D02*
X-3061251Y-2196932D01*
X-3051091Y-2196932D02*
X-3040931Y-2196932D01*
X-3025691Y-2196932D02*
X-3020611Y-2196932D01*
X-3010451Y-2196932D02*
X-3005371Y-2196932D01*
X-2995211Y-2196932D02*
X-2990131Y-2196932D01*
X-2979971Y-2196932D02*
X-2969811Y-2196932D01*
X-3112051Y-2191852D02*
X-3091731Y-2191852D01*
X-3076491Y-2191852D02*
X-3061251Y-2191852D01*
X-3051091Y-2191852D02*
X-3035851Y-2191852D01*
X-3025691Y-2191852D02*
X-3020611Y-2191852D01*
X-3015531Y-2191852D02*
X-3005371Y-2191852D01*
X-2995211Y-2191852D02*
X-2990131Y-2191852D01*
X-2974891Y-2191852D02*
X-2964731Y-2191852D01*
X-3112051Y-2186772D02*
X-3106971Y-2186772D01*
X-3091731Y-2186772D02*
X-3086651Y-2186772D01*
X-3076491Y-2186772D02*
X-3071411Y-2186772D01*
X-3061251Y-2186772D02*
X-3051091Y-2186772D01*
X-3040931Y-2186772D02*
X-3035851Y-2186772D01*
X-3025691Y-2186772D02*
X-3020611Y-2186772D01*
X-3015531Y-2186772D02*
X-3010451Y-2186772D01*
X-3005371Y-2186772D02*
X-3000291Y-2186772D01*
X-2995211Y-2186772D02*
X-2990131Y-2186772D01*
X-2969811Y-2186772D02*
X-2959651Y-2186772D01*
X-3112051Y-2181692D02*
X-3106971Y-2181692D01*
X-3091731Y-2181692D02*
X-3086651Y-2181692D01*
X-3076491Y-2181692D02*
X-3071411Y-2181692D01*
X-3061251Y-2181692D02*
X-3051091Y-2181692D01*
X-3040931Y-2181692D02*
X-3035851Y-2181692D01*
X-3025691Y-2181692D02*
X-3020611Y-2181692D01*
X-3015531Y-2181692D02*
X-3010451Y-2181692D01*
X-3005371Y-2181692D02*
X-3000291Y-2181692D01*
X-2995211Y-2181692D02*
X-2990131Y-2181692D01*
X-2964731Y-2181692D02*
X-2954571Y-2181692D01*
X-3112051Y-2176612D02*
X-3106971Y-2176612D01*
X-3091731Y-2176612D02*
X-3086651Y-2176612D01*
X-3076491Y-2176612D02*
X-3071411Y-2176612D01*
X-3061251Y-2176612D02*
X-3051091Y-2176612D01*
X-3040931Y-2176612D02*
X-3035851Y-2176612D01*
X-3025691Y-2176612D02*
X-3015531Y-2176612D01*
X-3000291Y-2176612D02*
X-2990131Y-2176612D01*
X-2959651Y-2176612D02*
X-2954571Y-2176612D01*
X-3112051Y-2171532D02*
X-3106971Y-2171532D01*
X-3096811Y-2171532D02*
X-3086651Y-2171532D01*
X-3076491Y-2171532D02*
X-3071411Y-2171532D01*
X-3061251Y-2171532D02*
X-3051091Y-2171532D01*
X-3040931Y-2171532D02*
X-3035851Y-2171532D01*
X-3025691Y-2171532D02*
X-3015531Y-2171532D01*
X-3000291Y-2171532D02*
X-2990131Y-2171532D01*
X-2979971Y-2171532D02*
X-2974891Y-2171532D01*
X-2964731Y-2171532D02*
X-2954571Y-2171532D01*
X-3112051Y-2166452D02*
X-3091731Y-2166452D01*
X-3081571Y-2166452D02*
X-3071411Y-2166452D01*
X-3040931Y-2166452D02*
X-3035851Y-2166452D01*
X-3025691Y-2166452D02*
X-3015531Y-2166452D01*
X-3000291Y-2166452D02*
X-2990131Y-2166452D01*
X-2974891Y-2166452D02*
X-2964731Y-2166452D01*
X-3070319Y-1677640D02*
X-3044919Y-1677640D01*
X-3029679Y-1677640D02*
X-3024599Y-1677640D01*
X-3014439Y-1677640D02*
X-3009359Y-1677640D01*
X-2994119Y-1677640D02*
X-2983959Y-1677640D01*
X-2978879Y-1677640D02*
X-2953479Y-1677640D01*
X-3070319Y-1672560D02*
X-3065239Y-1672560D01*
X-3049999Y-1672560D02*
X-3044919Y-1672560D01*
X-3029679Y-1672560D02*
X-3024599Y-1672560D01*
X-3014439Y-1672560D02*
X-3009359Y-1672560D01*
X-2994119Y-1672560D02*
X-2989039Y-1672560D01*
X-2978879Y-1672560D02*
X-2973799Y-1672560D01*
X-3070319Y-1667480D02*
X-3065239Y-1667480D01*
X-3049999Y-1667480D02*
X-3039839Y-1667480D01*
X-3029679Y-1667480D02*
X-3024599Y-1667480D01*
X-3014439Y-1667480D02*
X-3009359Y-1667480D01*
X-2999199Y-1667480D02*
X-2989039Y-1667480D01*
X-2978879Y-1667480D02*
X-2968719Y-1667480D01*
X-3070319Y-1662400D02*
X-3065239Y-1662400D01*
X-3049999Y-1662400D02*
X-3039839Y-1662400D01*
X-3029679Y-1662400D02*
X-3024599Y-1662400D01*
X-3014439Y-1662400D02*
X-2994119Y-1662400D01*
X-2973799Y-1662400D02*
X-2963639Y-1662400D01*
X-3070319Y-1657320D02*
X-3065239Y-1657320D01*
X-3049999Y-1657320D02*
X-3039839Y-1657320D01*
X-3029679Y-1657320D02*
X-3024599Y-1657320D01*
X-3014439Y-1657320D02*
X-3009359Y-1657320D01*
X-2999199Y-1657320D02*
X-2989039Y-1657320D01*
X-2968719Y-1657320D02*
X-2958559Y-1657320D01*
X-3070319Y-1652240D02*
X-3065239Y-1652240D01*
X-3049999Y-1652240D02*
X-3039839Y-1652240D01*
X-3029679Y-1652240D02*
X-3024599Y-1652240D01*
X-3014439Y-1652240D02*
X-3009359Y-1652240D01*
X-2994119Y-1652240D02*
X-2989039Y-1652240D01*
X-2963639Y-1652240D02*
X-2953479Y-1652240D01*
X-3070319Y-1647160D02*
X-3065239Y-1647160D01*
X-3049999Y-1647160D02*
X-3039839Y-1647160D01*
X-3029679Y-1647160D02*
X-3024599Y-1647160D01*
X-3014439Y-1647160D02*
X-3009359Y-1647160D01*
X-2994119Y-1647160D02*
X-2989039Y-1647160D01*
X-2958559Y-1647160D02*
X-2953479Y-1647160D01*
X-3070319Y-1642080D02*
X-3065239Y-1642080D01*
X-3049999Y-1642080D02*
X-3044919Y-1642080D01*
X-3029679Y-1642080D02*
X-3024599Y-1642080D01*
X-3014439Y-1642080D02*
X-3009359Y-1642080D01*
X-2994119Y-1642080D02*
X-2989039Y-1642080D01*
X-2978879Y-1642080D02*
X-2973799Y-1642080D01*
X-2963639Y-1642080D02*
X-2953479Y-1642080D01*
X-3070319Y-1637000D02*
X-3049999Y-1637000D01*
X-3029679Y-1637000D02*
X-3024599Y-1637000D01*
X-3014439Y-1637000D02*
X-2994119Y-1637000D01*
X-2973799Y-1637000D02*
X-2963639Y-1637000D01*
X-3069506Y-1412900D02*
X-3064426Y-1412900D01*
X-3028866Y-1412900D02*
X-3018706Y-1412900D01*
X-3008546Y-1412900D02*
X-2998386Y-1412900D01*
X-2983146Y-1412900D02*
X-2978066Y-1412900D01*
X-2952666Y-1412900D02*
X-2947586Y-1412900D01*
X-2927266Y-1412900D02*
X-2922186Y-1412900D01*
X-3069506Y-1407820D02*
X-3064426Y-1407820D01*
X-3028866Y-1407820D02*
X-3018706Y-1407820D01*
X-3008546Y-1407820D02*
X-2998386Y-1407820D01*
X-2983146Y-1407820D02*
X-2978066Y-1407820D01*
X-2952666Y-1407820D02*
X-2947586Y-1407820D01*
X-2927266Y-1407820D02*
X-2922186Y-1407820D01*
X-3069506Y-1402740D02*
X-3064426Y-1402740D01*
X-3028866Y-1402740D02*
X-3018706Y-1402740D01*
X-3008546Y-1402740D02*
X-2998386Y-1402740D01*
X-2983146Y-1402740D02*
X-2978066Y-1402740D01*
X-2967906Y-1402740D02*
X-2962826Y-1402740D01*
X-2952666Y-1402740D02*
X-2947586Y-1402740D01*
X-2927266Y-1402740D02*
X-2922186Y-1402740D01*
X-3069506Y-1397660D02*
X-3049186Y-1397660D01*
X-3033946Y-1397660D02*
X-3018706Y-1397660D01*
X-3008546Y-1397660D02*
X-2993306Y-1397660D01*
X-2983146Y-1397660D02*
X-2978066Y-1397660D01*
X-2972986Y-1397660D02*
X-2962826Y-1397660D01*
X-2952666Y-1397660D02*
X-2947586Y-1397660D01*
X-2927266Y-1397660D02*
X-2922186Y-1397660D01*
X-3069506Y-1392580D02*
X-3064426Y-1392580D01*
X-3049186Y-1392580D02*
X-3044106Y-1392580D01*
X-3033946Y-1392580D02*
X-3028866Y-1392580D01*
X-3018706Y-1392580D02*
X-3008546Y-1392580D01*
X-2998386Y-1392580D02*
X-2993306Y-1392580D01*
X-2983146Y-1392580D02*
X-2978066Y-1392580D01*
X-2972986Y-1392580D02*
X-2967906Y-1392580D01*
X-2962826Y-1392580D02*
X-2957746Y-1392580D01*
X-2952666Y-1392580D02*
X-2947586Y-1392580D01*
X-2927266Y-1392580D02*
X-2922186Y-1392580D01*
X-3069506Y-1387500D02*
X-3064426Y-1387500D01*
X-3049186Y-1387500D02*
X-3044106Y-1387500D01*
X-3033946Y-1387500D02*
X-3028866Y-1387500D01*
X-3018706Y-1387500D02*
X-3008546Y-1387500D01*
X-2998386Y-1387500D02*
X-2993306Y-1387500D01*
X-2983146Y-1387500D02*
X-2978066Y-1387500D01*
X-2972986Y-1387500D02*
X-2967906Y-1387500D01*
X-2962826Y-1387500D02*
X-2957746Y-1387500D01*
X-2952666Y-1387500D02*
X-2947586Y-1387500D01*
X-2927266Y-1387500D02*
X-2922186Y-1387500D01*
X-3069506Y-1382420D02*
X-3064426Y-1382420D01*
X-3049186Y-1382420D02*
X-3044106Y-1382420D01*
X-3033946Y-1382420D02*
X-3028866Y-1382420D01*
X-3018706Y-1382420D02*
X-3008546Y-1382420D01*
X-2998386Y-1382420D02*
X-2993306Y-1382420D01*
X-2983146Y-1382420D02*
X-2972986Y-1382420D01*
X-2957746Y-1382420D02*
X-2947586Y-1382420D01*
X-2927266Y-1382420D02*
X-2922186Y-1382420D01*
X-3069506Y-1377340D02*
X-3064426Y-1377340D01*
X-3054266Y-1377340D02*
X-3044106Y-1377340D01*
X-3033946Y-1377340D02*
X-3028866Y-1377340D01*
X-3018706Y-1377340D02*
X-3008546Y-1377340D01*
X-2998386Y-1377340D02*
X-2993306Y-1377340D01*
X-2983146Y-1377340D02*
X-2972986Y-1377340D01*
X-2957746Y-1377340D02*
X-2947586Y-1377340D01*
X-2937426Y-1377340D02*
X-2922186Y-1377340D01*
X-3069506Y-1372260D02*
X-3049186Y-1372260D01*
X-3039026Y-1372260D02*
X-3028866Y-1372260D01*
X-2998386Y-1372260D02*
X-2993306Y-1372260D01*
X-2983146Y-1372260D02*
X-2972986Y-1372260D01*
X-2957746Y-1372260D02*
X-2947586Y-1372260D01*
X-2927266Y-1372260D02*
X-2922186Y-1372260D01*
X-3058839Y-1167678D02*
X-3038519Y-1167678D01*
X-3023279Y-1167678D02*
X-3018199Y-1167678D01*
X-3008039Y-1167678D02*
X-3002959Y-1167678D01*
X-2987719Y-1167678D02*
X-2982639Y-1167678D01*
X-2962319Y-1167678D02*
X-2957239Y-1167678D01*
X-3058839Y-1162598D02*
X-3053759Y-1162598D01*
X-3038519Y-1162598D02*
X-3033439Y-1162598D01*
X-3023279Y-1162598D02*
X-3018199Y-1162598D01*
X-3008039Y-1162598D02*
X-3002959Y-1162598D01*
X-2987719Y-1162598D02*
X-2982639Y-1162598D01*
X-2962319Y-1162598D02*
X-2957239Y-1162598D01*
X-3058839Y-1157518D02*
X-3053759Y-1157518D01*
X-3033439Y-1157518D02*
X-3028359Y-1157518D01*
X-3023279Y-1157518D02*
X-3018199Y-1157518D01*
X-3008039Y-1157518D02*
X-3002959Y-1157518D01*
X-2992799Y-1157518D02*
X-2987719Y-1157518D01*
X-2962319Y-1157518D02*
X-2957239Y-1157518D01*
X-3058839Y-1152438D02*
X-3053759Y-1152438D01*
X-3033439Y-1152438D02*
X-3028359Y-1152438D01*
X-3023279Y-1152438D02*
X-3018199Y-1152438D01*
X-3008039Y-1152438D02*
X-3002959Y-1152438D01*
X-2992799Y-1152438D02*
X-2987719Y-1152438D01*
X-2962319Y-1152438D02*
X-2957239Y-1152438D01*
X-3058839Y-1147358D02*
X-3053759Y-1147358D01*
X-3033439Y-1147358D02*
X-3028359Y-1147358D01*
X-3023279Y-1147358D02*
X-3018199Y-1147358D01*
X-3008039Y-1147358D02*
X-2992799Y-1147358D01*
X-2987719Y-1147358D02*
X-2982639Y-1147358D01*
X-2962319Y-1147358D02*
X-2957239Y-1147358D01*
X-3058839Y-1142278D02*
X-3053759Y-1142278D01*
X-3033439Y-1142278D02*
X-3028359Y-1142278D01*
X-3023279Y-1142278D02*
X-3018199Y-1142278D01*
X-3008039Y-1142278D02*
X-3002959Y-1142278D01*
X-2987719Y-1142278D02*
X-2982639Y-1142278D01*
X-2962319Y-1142278D02*
X-2957239Y-1142278D01*
X-3058839Y-1137198D02*
X-3053759Y-1137198D01*
X-3038519Y-1137198D02*
X-3033439Y-1137198D01*
X-3023279Y-1137198D02*
X-3018199Y-1137198D01*
X-3008039Y-1137198D02*
X-3002959Y-1137198D01*
X-2987719Y-1137198D02*
X-2982639Y-1137198D01*
X-2962319Y-1137198D02*
X-2957239Y-1137198D01*
X-3058839Y-1132118D02*
X-3053759Y-1132118D01*
X-3038519Y-1132118D02*
X-3033439Y-1132118D01*
X-3023279Y-1132118D02*
X-3018199Y-1132118D01*
X-3008039Y-1132118D02*
X-3002959Y-1132118D01*
X-2987719Y-1132118D02*
X-2982639Y-1132118D01*
X-2972479Y-1132118D02*
X-2957239Y-1132118D01*
X-3058839Y-1127038D02*
X-3038519Y-1127038D01*
X-3023279Y-1127038D02*
X-3018199Y-1127038D01*
X-3008039Y-1127038D02*
X-2987719Y-1127038D01*
X-2962319Y-1127038D02*
X-2957239Y-1127038D01*
X-3086665Y-487498D02*
X-3081585Y-487498D01*
X-3167945Y-482418D02*
X-3162865Y-482418D01*
X-3137465Y-482418D02*
X-3117145Y-482418D01*
X-3106985Y-482418D02*
X-3081585Y-482418D01*
X-3056185Y-482418D02*
X-3035865Y-482418D01*
X-3025705Y-482418D02*
X-3020625Y-482418D01*
X-3000305Y-482418D02*
X-2995225Y-482418D01*
X-2985065Y-482418D02*
X-2964745Y-482418D01*
X-3173025Y-477338D02*
X-3162865Y-477338D01*
X-3142545Y-477338D02*
X-3137465Y-477338D01*
X-3112065Y-477338D02*
X-3106985Y-477338D01*
X-3081585Y-477338D02*
X-3076505Y-477338D01*
X-3061265Y-477338D02*
X-3056185Y-477338D01*
X-3040945Y-477338D02*
X-3035865Y-477338D01*
X-3025705Y-477338D02*
X-3020625Y-477338D01*
X-3005385Y-477338D02*
X-2995225Y-477338D01*
X-2985065Y-477338D02*
X-2979985Y-477338D01*
X-2964745Y-477338D02*
X-2959665Y-477338D01*
X-3173025Y-472258D02*
X-3167945Y-472258D01*
X-3162865Y-472258D02*
X-3157785Y-472258D01*
X-3142545Y-472258D02*
X-3137465Y-472258D01*
X-3112065Y-472258D02*
X-3106985Y-472258D01*
X-3081585Y-472258D02*
X-3076505Y-472258D01*
X-3061265Y-472258D02*
X-3056185Y-472258D01*
X-3040945Y-472258D02*
X-3035865Y-472258D01*
X-3025705Y-472258D02*
X-3020625Y-472258D01*
X-3010465Y-472258D02*
X-3005385Y-472258D01*
X-3000305Y-472258D02*
X-2995225Y-472258D01*
X-2985065Y-472258D02*
X-2979985Y-472258D01*
X-2959665Y-472258D02*
X-2954585Y-472258D01*
X-3178105Y-467178D02*
X-3173025Y-467178D01*
X-3162865Y-467178D02*
X-3157785Y-467178D01*
X-3142545Y-467178D02*
X-3137465Y-467178D01*
X-3112065Y-467178D02*
X-3106985Y-467178D01*
X-3081585Y-467178D02*
X-3076505Y-467178D01*
X-3061265Y-467178D02*
X-3056185Y-467178D01*
X-3040945Y-467178D02*
X-3035865Y-467178D01*
X-3025705Y-467178D02*
X-3020625Y-467178D01*
X-3010465Y-467178D02*
X-3005385Y-467178D01*
X-3000305Y-467178D02*
X-2995225Y-467178D01*
X-2985065Y-467178D02*
X-2979985Y-467178D01*
X-2959665Y-467178D02*
X-2954585Y-467178D01*
X-3178105Y-462098D02*
X-3173025Y-462098D01*
X-3162865Y-462098D02*
X-3157785Y-462098D01*
X-3142545Y-462098D02*
X-3137465Y-462098D01*
X-3112065Y-462098D02*
X-3106985Y-462098D01*
X-3076505Y-462098D02*
X-3071425Y-462098D01*
X-3061265Y-462098D02*
X-3056185Y-462098D01*
X-3025705Y-462098D02*
X-3020625Y-462098D01*
X-3015545Y-462098D02*
X-3010465Y-462098D01*
X-3000305Y-462098D02*
X-2995225Y-462098D01*
X-2985065Y-462098D02*
X-2979985Y-462098D01*
X-2959665Y-462098D02*
X-2954585Y-462098D01*
X-3178105Y-457018D02*
X-3173025Y-457018D01*
X-3157785Y-457018D02*
X-3152705Y-457018D01*
X-3142545Y-457018D02*
X-3137465Y-457018D01*
X-3112065Y-457018D02*
X-3106985Y-457018D01*
X-3076505Y-457018D02*
X-3071425Y-457018D01*
X-3061265Y-457018D02*
X-3056185Y-457018D01*
X-3025705Y-457018D02*
X-3020625Y-457018D01*
X-3015545Y-457018D02*
X-3010465Y-457018D01*
X-3000305Y-457018D02*
X-2995225Y-457018D01*
X-2985065Y-457018D02*
X-2979985Y-457018D01*
X-2959665Y-457018D02*
X-2954585Y-457018D01*
X-3178105Y-451938D02*
X-3173025Y-451938D01*
X-3157785Y-451938D02*
X-3152705Y-451938D01*
X-3142545Y-451938D02*
X-3137465Y-451938D01*
X-3112065Y-451938D02*
X-3106985Y-451938D01*
X-3076505Y-451938D02*
X-3071425Y-451938D01*
X-3061265Y-451938D02*
X-3056185Y-451938D01*
X-3025705Y-451938D02*
X-3015545Y-451938D01*
X-3000305Y-451938D02*
X-2995225Y-451938D01*
X-2985065Y-451938D02*
X-2979985Y-451938D01*
X-2964745Y-451938D02*
X-2959665Y-451938D01*
X-3183185Y-446858D02*
X-3178105Y-446858D01*
X-3157785Y-446858D02*
X-3152705Y-446858D01*
X-3142545Y-446858D02*
X-3137465Y-446858D01*
X-3112065Y-446858D02*
X-3106985Y-446858D01*
X-3076505Y-446858D02*
X-3071425Y-446858D01*
X-3061265Y-446858D02*
X-3056185Y-446858D01*
X-3025705Y-446858D02*
X-3020625Y-446858D01*
X-3000305Y-446858D02*
X-2995225Y-446858D01*
X-2985065Y-446858D02*
X-2979985Y-446858D01*
X-2964745Y-446858D02*
X-2959665Y-446858D01*
X-3183185Y-441778D02*
X-3178105Y-441778D01*
X-3137465Y-441778D02*
X-3117145Y-441778D01*
X-3106985Y-441778D02*
X-3086665Y-441778D01*
X-3071425Y-441778D02*
X-3066345Y-441778D01*
X-3056185Y-441778D02*
X-3035865Y-441778D01*
X-3025705Y-441778D02*
X-3020625Y-441778D01*
X-3000305Y-441778D02*
X-2995225Y-441778D01*
X-2985065Y-441778D02*
X-2964745Y-441778D01*
X-3071425Y-436698D02*
X-3066345Y-436698D01*
X-3106977Y-232720D02*
X-3096817Y-232720D01*
X-3137457Y-227640D02*
X-3132377Y-227640D01*
X-3117137Y-227640D02*
X-3106977Y-227640D01*
X-3101897Y-227640D02*
X-3096817Y-227640D01*
X-3076497Y-227640D02*
X-3051097Y-227640D01*
X-3005377Y-227640D02*
X-3000297Y-227640D01*
X-2990137Y-227640D02*
X-2969817Y-227640D01*
X-3137457Y-222560D02*
X-3132377Y-222560D01*
X-3117137Y-222560D02*
X-3112057Y-222560D01*
X-3101897Y-222560D02*
X-3096817Y-222560D01*
X-3076497Y-222560D02*
X-3071417Y-222560D01*
X-3005377Y-222560D02*
X-3000297Y-222560D01*
X-2974897Y-222560D02*
X-2964737Y-222560D01*
X-3137457Y-217480D02*
X-3132377Y-217480D01*
X-3122217Y-217480D02*
X-3112057Y-217480D01*
X-3101897Y-217480D02*
X-3096817Y-217480D01*
X-3076497Y-217480D02*
X-3071417Y-217480D01*
X-3005377Y-217480D02*
X-3000297Y-217480D01*
X-2969817Y-217480D02*
X-2964737Y-217480D01*
X-3137457Y-212400D02*
X-3117137Y-212400D01*
X-3101897Y-212400D02*
X-3091737Y-212400D01*
X-3076497Y-212400D02*
X-3071417Y-212400D01*
X-3030777Y-212400D02*
X-3015537Y-212400D01*
X-3005377Y-212400D02*
X-3000297Y-212400D01*
X-2974897Y-212400D02*
X-2964737Y-212400D01*
X-3137457Y-207320D02*
X-3132377Y-207320D01*
X-3122217Y-207320D02*
X-3112057Y-207320D01*
X-3096817Y-207320D02*
X-3091737Y-207320D01*
X-3076497Y-207320D02*
X-3071417Y-207320D01*
X-3005377Y-207320D02*
X-3000297Y-207320D01*
X-2990137Y-207320D02*
X-2969817Y-207320D01*
X-3137457Y-202240D02*
X-3132377Y-202240D01*
X-3117137Y-202240D02*
X-3112057Y-202240D01*
X-3096817Y-202240D02*
X-3091737Y-202240D01*
X-3076497Y-202240D02*
X-3071417Y-202240D01*
X-3005377Y-202240D02*
X-3000297Y-202240D01*
X-2990137Y-202240D02*
X-2985057Y-202240D01*
X-3137457Y-197160D02*
X-3132377Y-197160D01*
X-3117137Y-197160D02*
X-3112057Y-197160D01*
X-3096817Y-197160D02*
X-3091737Y-197160D01*
X-3076497Y-197160D02*
X-3071417Y-197160D01*
X-3005377Y-197160D02*
X-3000297Y-197160D01*
X-2990137Y-197160D02*
X-2985057Y-197160D01*
X-3137457Y-192080D02*
X-3132377Y-192080D01*
X-3117137Y-192080D02*
X-3112057Y-192080D01*
X-3091737Y-192080D02*
X-3086657Y-192080D01*
X-3076497Y-192080D02*
X-3071417Y-192080D01*
X-3005377Y-192080D02*
X-3000297Y-192080D01*
X-2990137Y-192080D02*
X-2985057Y-192080D01*
X-3137457Y-187000D02*
X-3117137Y-187000D01*
X-3091737Y-187000D02*
X-3086657Y-187000D01*
X-3076497Y-187000D02*
X-3071417Y-187000D01*
X-3005377Y-187000D02*
X-3000297Y-187000D01*
X-2985057Y-187000D02*
X-2969817Y-187000D01*
X-3091737Y-181920D02*
X-3086657Y-181920D01*
X-3170518Y+37100D02*
X-3145118Y+37100D01*
X-3124798Y+37100D02*
X-3119718Y+37100D01*
X-3099398Y+37100D02*
X-3079078Y+37100D01*
X-3043518Y+37100D02*
X-3018118Y+37100D01*
X-3013038Y+37100D02*
X-3007958Y+37100D01*
X-2992718Y+37100D02*
X-2982558Y+37100D01*
X-3170518Y+42180D02*
X-3165438Y+42180D01*
X-3150198Y+42180D02*
X-3145118Y+42180D01*
X-3124798Y+42180D02*
X-3119718Y+42180D01*
X-3084158Y+42180D02*
X-3073998Y+42180D01*
X-3043518Y+42180D02*
X-3038438Y+42180D01*
X-3013038Y+42180D02*
X-3007958Y+42180D01*
X-2992718Y+42180D02*
X-2982558Y+42180D01*
X-3170518Y+47260D02*
X-3165438Y+47260D01*
X-3150198Y+47260D02*
X-3145118Y+47260D01*
X-3124798Y+47260D02*
X-3119718Y+47260D01*
X-3079078Y+47260D02*
X-3073998Y+47260D01*
X-3043518Y+47260D02*
X-3038438Y+47260D01*
X-3013038Y+47260D02*
X-3007958Y+47260D01*
X-2997798Y+47260D02*
X-2992718Y+47260D01*
X-2987638Y+47260D02*
X-2982558Y+47260D01*
X-3170518Y+52340D02*
X-3165438Y+52340D01*
X-3150198Y+52340D02*
X-3145118Y+52340D01*
X-3124798Y+52340D02*
X-3119718Y+52340D01*
X-3084158Y+52340D02*
X-3073998Y+52340D01*
X-3068918Y+52340D02*
X-3053678Y+52340D01*
X-3043518Y+52340D02*
X-3038438Y+52340D01*
X-3013038Y+52340D02*
X-3007958Y+52340D01*
X-2997798Y+52340D02*
X-2992718Y+52340D01*
X-2987638Y+52340D02*
X-2982558Y+52340D01*
X-3170518Y+57420D02*
X-3150198Y+57420D01*
X-3124798Y+57420D02*
X-3119718Y+57420D01*
X-3099398Y+57420D02*
X-3079078Y+57420D01*
X-3043518Y+57420D02*
X-3023198Y+57420D01*
X-3013038Y+57420D02*
X-3007958Y+57420D01*
X-3002878Y+57420D02*
X-2997798Y+57420D01*
X-2987638Y+57420D02*
X-2982558Y+57420D01*
X-3170518Y+62500D02*
X-3165438Y+62500D01*
X-3150198Y+62500D02*
X-3145118Y+62500D01*
X-3124798Y+62500D02*
X-3119718Y+62500D01*
X-3099398Y+62500D02*
X-3094318Y+62500D01*
X-3043518Y+62500D02*
X-3038438Y+62500D01*
X-3013038Y+62500D02*
X-3007958Y+62500D01*
X-3002878Y+62500D02*
X-2997798Y+62500D01*
X-2987638Y+62500D02*
X-2982558Y+62500D01*
X-3170518Y+67580D02*
X-3165438Y+67580D01*
X-3150198Y+67580D02*
X-3145118Y+67580D01*
X-3124798Y+67580D02*
X-3119718Y+67580D01*
X-3099398Y+67580D02*
X-3094318Y+67580D01*
X-3043518Y+67580D02*
X-3038438Y+67580D01*
X-3013038Y+67580D02*
X-3002878Y+67580D01*
X-2987638Y+67580D02*
X-2982558Y+67580D01*
X-3170518Y+72660D02*
X-3165438Y+72660D01*
X-3155278Y+72660D02*
X-3145118Y+72660D01*
X-3124798Y+72660D02*
X-3119718Y+72660D01*
X-3099398Y+72660D02*
X-3094318Y+72660D01*
X-3043518Y+72660D02*
X-3038438Y+72660D01*
X-3013038Y+72660D02*
X-3002878Y+72660D01*
X-2987638Y+72660D02*
X-2982558Y+72660D01*
X-3170518Y+77740D02*
X-3150198Y+77740D01*
X-3140038Y+77740D02*
X-3109558Y+77740D01*
X-3094318Y+77740D02*
X-3079078Y+77740D01*
X-3043518Y+77740D02*
X-3018118Y+77740D01*
X-3013038Y+77740D02*
X-3007958Y+77740D01*
X-2987638Y+77740D02*
X-2982558Y+77740D01*
X-3148845Y+252540D02*
X-3138685Y+252540D01*
X-3179325Y+257620D02*
X-3174245Y+257620D01*
X-3159005Y+257620D02*
X-3148845Y+257620D01*
X-3143765Y+257620D02*
X-3138685Y+257620D01*
X-3118365Y+257620D02*
X-3092965Y+257620D01*
X-3047245Y+257620D02*
X-3042165Y+257620D01*
X-3006605Y+257620D02*
X-2996445Y+257620D01*
X-2986285Y+257620D02*
X-2976125Y+257620D01*
X-2960885Y+257620D02*
X-2955805Y+257620D01*
X-2930405Y+257620D02*
X-2925325Y+257620D01*
X-3179325Y+262700D02*
X-3174245Y+262700D01*
X-3159005Y+262700D02*
X-3153925Y+262700D01*
X-3143765Y+262700D02*
X-3138685Y+262700D01*
X-3118365Y+262700D02*
X-3113285Y+262700D01*
X-3047245Y+262700D02*
X-3042165Y+262700D01*
X-3006605Y+262700D02*
X-2996445Y+262700D01*
X-2986285Y+262700D02*
X-2976125Y+262700D01*
X-2960885Y+262700D02*
X-2955805Y+262700D01*
X-2930405Y+262700D02*
X-2925325Y+262700D01*
X-3179325Y+267780D02*
X-3174245Y+267780D01*
X-3164085Y+267780D02*
X-3153925Y+267780D01*
X-3143765Y+267780D02*
X-3138685Y+267780D01*
X-3118365Y+267780D02*
X-3113285Y+267780D01*
X-3047245Y+267780D02*
X-3042165Y+267780D01*
X-3006605Y+267780D02*
X-2996445Y+267780D01*
X-2986285Y+267780D02*
X-2976125Y+267780D01*
X-2960885Y+267780D02*
X-2955805Y+267780D01*
X-2945645Y+267780D02*
X-2940565Y+267780D01*
X-2930405Y+267780D02*
X-2925325Y+267780D01*
X-3179325Y+272860D02*
X-3159005Y+272860D01*
X-3143765Y+272860D02*
X-3133605Y+272860D01*
X-3118365Y+272860D02*
X-3113285Y+272860D01*
X-3072645Y+272860D02*
X-3057405Y+272860D01*
X-3047245Y+272860D02*
X-3026925Y+272860D01*
X-3011685Y+272860D02*
X-2996445Y+272860D01*
X-2986285Y+272860D02*
X-2971045Y+272860D01*
X-2960885Y+272860D02*
X-2955805Y+272860D01*
X-2950725Y+272860D02*
X-2940565Y+272860D01*
X-2930405Y+272860D02*
X-2925325Y+272860D01*
X-3179325Y+277940D02*
X-3174245Y+277940D01*
X-3164085Y+277940D02*
X-3153925Y+277940D01*
X-3138685Y+277940D02*
X-3133605Y+277940D01*
X-3118365Y+277940D02*
X-3113285Y+277940D01*
X-3047245Y+277940D02*
X-3042165Y+277940D01*
X-3026925Y+277940D02*
X-3021845Y+277940D01*
X-3011685Y+277940D02*
X-3006605Y+277940D01*
X-2996445Y+277940D02*
X-2986285Y+277940D01*
X-2976125Y+277940D02*
X-2971045Y+277940D01*
X-2960885Y+277940D02*
X-2955805Y+277940D01*
X-2950725Y+277940D02*
X-2945645Y+277940D01*
X-2940565Y+277940D02*
X-2935485Y+277940D01*
X-2930405Y+277940D02*
X-2925325Y+277940D01*
X-3179325Y+283020D02*
X-3174245Y+283020D01*
X-3159005Y+283020D02*
X-3153925Y+283020D01*
X-3138685Y+283020D02*
X-3133605Y+283020D01*
X-3118365Y+283020D02*
X-3113285Y+283020D01*
X-3047245Y+283020D02*
X-3042165Y+283020D01*
X-3026925Y+283020D02*
X-3021845Y+283020D01*
X-3011685Y+283020D02*
X-3006605Y+283020D01*
X-2996445Y+283020D02*
X-2986285Y+283020D01*
X-2976125Y+283020D02*
X-2971045Y+283020D01*
X-2960885Y+283020D02*
X-2955805Y+283020D01*
X-2950725Y+283020D02*
X-2945645Y+283020D01*
X-2940565Y+283020D02*
X-2935485Y+283020D01*
X-2930405Y+283020D02*
X-2925325Y+283020D01*
X-3179325Y+288100D02*
X-3174245Y+288100D01*
X-3159005Y+288100D02*
X-3153925Y+288100D01*
X-3138685Y+288100D02*
X-3133605Y+288100D01*
X-3118365Y+288100D02*
X-3113285Y+288100D01*
X-3047245Y+288100D02*
X-3042165Y+288100D01*
X-3026925Y+288100D02*
X-3021845Y+288100D01*
X-3011685Y+288100D02*
X-3006605Y+288100D01*
X-2996445Y+288100D02*
X-2986285Y+288100D01*
X-2976125Y+288100D02*
X-2971045Y+288100D01*
X-2960885Y+288100D02*
X-2950725Y+288100D01*
X-2935485Y+288100D02*
X-2925325Y+288100D01*
X-3179325Y+293180D02*
X-3174245Y+293180D01*
X-3159005Y+293180D02*
X-3153925Y+293180D01*
X-3133605Y+293180D02*
X-3128525Y+293180D01*
X-3118365Y+293180D02*
X-3113285Y+293180D01*
X-3047245Y+293180D02*
X-3042165Y+293180D01*
X-3032005Y+293180D02*
X-3021845Y+293180D01*
X-3011685Y+293180D02*
X-3006605Y+293180D01*
X-2996445Y+293180D02*
X-2986285Y+293180D01*
X-2976125Y+293180D02*
X-2971045Y+293180D01*
X-2960885Y+293180D02*
X-2950725Y+293180D01*
X-2935485Y+293180D02*
X-2925325Y+293180D01*
X-3179325Y+298260D02*
X-3159005Y+298260D01*
X-3133605Y+298260D02*
X-3128525Y+298260D01*
X-3118365Y+298260D02*
X-3113285Y+298260D01*
X-3047245Y+298260D02*
X-3026925Y+298260D01*
X-3016765Y+298260D02*
X-3006605Y+298260D01*
X-2976125Y+298260D02*
X-2971045Y+298260D01*
X-2960885Y+298260D02*
X-2950725Y+298260D01*
X-2935485Y+298260D02*
X-2925325Y+298260D01*
X-3133605Y+303340D02*
X-3128525Y+303340D01*
M02*
