G04 PROTEUS RS274X GERBER FILE*
%FSLAX45Y45*%
%MOMM*%
G01*
%ADD21C,0.050000*%
%ADD22C,1.117600*%
%ADD23C,0.992460*%
%ADD13C,0.203200*%
%ADD24C,0.812800*%
%ADD25C,0.240550*%
%ADD70C,0.063640*%
%ADD26C,0.059700*%
%ADD27C,0.119740*%
%ADD28C,0.177800*%
D21*
X-1457623Y+2319179D02*
X-1457623Y-2556821D01*
X+1382377Y-2556821D02*
X+1382377Y+2319179D01*
X+887377Y+2319179D01*
X-962623Y+2319179D02*
X-1457623Y+2319179D01*
X-962623Y+2319179D02*
X-962623Y+2936179D01*
X+887377Y+2936179D01*
X+887377Y+2319179D01*
X-1457623Y-2556821D02*
X-469623Y-2556821D01*
X-469623Y-2643821D01*
X+393377Y-2643821D01*
X+393377Y-2556821D01*
X+1382377Y-2556821D01*
D22*
X-1307623Y+2166179D02*
X-1307623Y+2166179D01*
D23*
X+364306Y-1416947D02*
X+364306Y-2086858D01*
X-231171Y-2086858D01*
X-231171Y-1416947D01*
X+66567Y-2086858D02*
X+66567Y-1640251D01*
X+265060Y-1193643D02*
X+364306Y-1081992D01*
X+364306Y-635384D01*
X+265060Y-523732D01*
X+165814Y-523732D01*
X+66567Y-635384D01*
X+66567Y-1081992D01*
X-32679Y-1193643D01*
X-131925Y-1193643D01*
X-231171Y-1081992D01*
X-231171Y-635384D01*
X-131925Y-523732D01*
X+364306Y-300428D02*
X-231171Y-300428D01*
X-231171Y+257831D01*
X-131925Y+369483D01*
X-32679Y+369483D01*
X+66567Y+257831D01*
X+66567Y-300428D01*
X-131925Y+704438D02*
X-231171Y+816090D01*
X-231171Y+1151046D01*
X-131925Y+1262698D01*
X-32679Y+1262698D01*
X+66567Y+1151046D01*
X+165814Y+1262698D01*
X+265060Y+1262698D01*
X+364306Y+1151046D01*
X+364306Y+816090D01*
X+265060Y+704438D01*
X+66567Y+927742D02*
X+66567Y+1151046D01*
X-131925Y+1597653D02*
X-231171Y+1709305D01*
X-231171Y+2044261D01*
X-131925Y+2155913D01*
X-32679Y+2155913D01*
X+66567Y+2044261D01*
X+66567Y+1709305D01*
X+165814Y+1597653D01*
X+364306Y+1597653D01*
X+364306Y+2155913D01*
D13*
X-3500000Y-3000000D02*
X+3500000Y-3000000D01*
X+3500000Y+3000000D01*
X-3500000Y+3000000D01*
X-3500000Y-3000000D01*
D21*
X-2255623Y-854599D02*
X-2255623Y-2414599D01*
X-2879623Y-2414599D01*
X-2879623Y-854599D01*
X-2255623Y-854599D01*
D24*
X-2617623Y-2144599D02*
X-2617623Y-2144599D01*
D25*
X-2495457Y-2019276D02*
X-2639790Y-2019276D01*
X-2567623Y-1938089D01*
X-2639790Y-1856902D01*
X-2495457Y-1856902D01*
X-2495457Y-1802777D02*
X-2639790Y-1802777D01*
X-2639790Y-1694528D01*
X-2591679Y-1640403D01*
X-2543568Y-1640403D01*
X-2495457Y-1694528D01*
X-2495457Y-1802777D01*
X-2591679Y-1532154D02*
X-2639790Y-1478029D01*
X-2495457Y-1478029D01*
X-2519512Y-1369779D02*
X-2615734Y-1369779D01*
X-2639790Y-1342717D01*
X-2639790Y-1234468D01*
X-2615734Y-1207405D01*
X-2519512Y-1207405D01*
X-2495457Y-1234468D01*
X-2495457Y-1342717D01*
X-2519512Y-1369779D01*
X-2495457Y-1369779D02*
X-2639790Y-1207405D01*
X-2495457Y-1153280D02*
X-2591679Y-1153280D01*
X-2639790Y-1099156D01*
X-2639790Y-1045031D01*
X-2591679Y-990906D01*
X-2495457Y-990906D01*
X-2543568Y-1153280D02*
X-2543568Y-990906D01*
D21*
X-3017377Y+859821D02*
X-3017377Y+2169821D01*
X-2393377Y+2169821D01*
X-2393377Y+859821D01*
X-3017377Y+859821D01*
D24*
X-2665377Y+1884821D02*
X-2665377Y+1884821D01*
D70*
X-2724470Y+921144D02*
X-2686283Y+921144D01*
X-2686283Y+964104D01*
X-2686283Y+1021385D02*
X-2686283Y+978425D01*
X-2724470Y+978425D01*
X-2724470Y+1021385D01*
X-2705377Y+978425D02*
X-2705377Y+1007065D01*
X-2686283Y+1035706D02*
X-2724470Y+1035706D01*
X-2724470Y+1078666D01*
X-2705377Y+1035706D02*
X-2705377Y+1064346D01*
X-2724470Y+1092987D02*
X-2724470Y+1135947D01*
X-2724470Y+1114467D02*
X-2686283Y+1114467D01*
X-2724470Y+1207549D02*
X-2692647Y+1207549D01*
X-2686283Y+1214709D01*
X-2686283Y+1243349D01*
X-2692647Y+1250509D01*
X-2724470Y+1250509D01*
X-2724470Y+1264830D02*
X-2686283Y+1264830D01*
X-2686283Y+1307790D01*
X-2724470Y+1322111D02*
X-2724470Y+1365071D01*
X-2724470Y+1343591D02*
X-2686283Y+1343591D01*
X-2686283Y+1379392D02*
X-2724470Y+1379392D01*
X-2724470Y+1415192D01*
X-2718106Y+1422352D01*
X-2711741Y+1422352D01*
X-2705377Y+1415192D01*
X-2705377Y+1379392D01*
X-2705377Y+1415192D02*
X-2699012Y+1422352D01*
X-2686283Y+1422352D01*
X-2686283Y+1436673D02*
X-2711741Y+1436673D01*
X-2724470Y+1450993D01*
X-2724470Y+1465313D01*
X-2711741Y+1479633D01*
X-2686283Y+1479633D01*
X-2699012Y+1436673D02*
X-2699012Y+1479633D01*
X-2692647Y+1493954D02*
X-2686283Y+1501114D01*
X-2686283Y+1529754D01*
X-2692647Y+1536914D01*
X-2699012Y+1536914D01*
X-2705377Y+1529754D01*
X-2705377Y+1501114D01*
X-2711741Y+1493954D01*
X-2718106Y+1493954D01*
X-2724470Y+1501114D01*
X-2724470Y+1529754D01*
X-2718106Y+1536914D01*
X-2711741Y+1551235D02*
X-2724470Y+1565555D01*
X-2724470Y+1579875D01*
X-2711741Y+1594195D01*
X-2699012Y+1594195D01*
X-2686283Y+1579875D01*
X-2686283Y+1565555D01*
X-2699012Y+1551235D01*
X-2711741Y+1551235D01*
X-2686283Y+1608516D02*
X-2724470Y+1608516D01*
X-2686283Y+1651476D01*
X-2724470Y+1651476D01*
X-2724470Y+1672957D02*
X-2724470Y+1701597D01*
X-2724470Y+1687277D02*
X-2686283Y+1687277D01*
X-2686283Y+1672957D02*
X-2686283Y+1701597D01*
X-2692647Y+1766038D02*
X-2686283Y+1758878D01*
X-2686283Y+1737398D01*
X-2699012Y+1723078D01*
X-2711741Y+1723078D01*
X-2724470Y+1737398D01*
X-2724470Y+1758878D01*
X-2718106Y+1766038D01*
D21*
X+1880377Y-1083222D02*
X+1880377Y+226778D01*
X+2504377Y+226778D01*
X+2504377Y-1083222D01*
X+1880377Y-1083222D01*
D24*
X+2232377Y-58222D02*
X+2232377Y-58222D01*
D26*
X+2210290Y-1022196D02*
X+2174464Y-1022196D01*
X+2174464Y-988610D01*
X+2180435Y-981893D01*
X+2186406Y-981893D01*
X+2192377Y-988610D01*
X+2192377Y-1022196D01*
X+2192377Y-988610D02*
X+2198348Y-981893D01*
X+2210290Y-981893D01*
X+2174464Y-961741D02*
X+2174464Y-934872D01*
X+2174464Y-948307D02*
X+2210290Y-948307D01*
X+2210290Y-961741D02*
X+2210290Y-934872D01*
X+2198348Y-887851D02*
X+2198348Y-874417D01*
X+2210290Y-874417D01*
X+2210290Y-901286D01*
X+2198348Y-914720D01*
X+2186406Y-914720D01*
X+2174464Y-901286D01*
X+2174464Y-881134D01*
X+2180435Y-874417D01*
X+2210290Y-860982D02*
X+2174464Y-860982D01*
X+2174464Y-820679D02*
X+2210290Y-820679D01*
X+2192377Y-860982D02*
X+2192377Y-820679D01*
X+2174464Y-807244D02*
X+2174464Y-766941D01*
X+2174464Y-787093D02*
X+2210290Y-787093D01*
X+2174464Y-699768D02*
X+2204319Y-699768D01*
X+2210290Y-693051D01*
X+2210290Y-666182D01*
X+2204319Y-659465D01*
X+2174464Y-659465D01*
X+2174464Y-646030D02*
X+2210290Y-646030D01*
X+2210290Y-605727D01*
X+2174464Y-592292D02*
X+2174464Y-551989D01*
X+2174464Y-572141D02*
X+2210290Y-572141D01*
X+2210290Y-538554D02*
X+2174464Y-538554D01*
X+2174464Y-504968D01*
X+2180435Y-498251D01*
X+2186406Y-498251D01*
X+2192377Y-504968D01*
X+2192377Y-538554D01*
X+2192377Y-504968D02*
X+2198348Y-498251D01*
X+2210290Y-498251D01*
X+2210290Y-484816D02*
X+2186406Y-484816D01*
X+2174464Y-471382D01*
X+2174464Y-457947D01*
X+2186406Y-444513D01*
X+2210290Y-444513D01*
X+2198348Y-484816D02*
X+2198348Y-444513D01*
X+2204319Y-431078D02*
X+2210290Y-424361D01*
X+2210290Y-397492D01*
X+2204319Y-390775D01*
X+2198348Y-390775D01*
X+2192377Y-397492D01*
X+2192377Y-424361D01*
X+2186406Y-431078D01*
X+2180435Y-431078D01*
X+2174464Y-424361D01*
X+2174464Y-397492D01*
X+2180435Y-390775D01*
X+2186406Y-377340D02*
X+2174464Y-363906D01*
X+2174464Y-350471D01*
X+2186406Y-337037D01*
X+2198348Y-337037D01*
X+2210290Y-350471D01*
X+2210290Y-363906D01*
X+2198348Y-377340D01*
X+2186406Y-377340D01*
X+2210290Y-323602D02*
X+2174464Y-323602D01*
X+2210290Y-283299D01*
X+2174464Y-283299D01*
X+2174464Y-263147D02*
X+2174464Y-236278D01*
X+2174464Y-249713D02*
X+2210290Y-249713D01*
X+2210290Y-263147D02*
X+2210290Y-236278D01*
X+2204319Y-175823D02*
X+2210290Y-182540D01*
X+2210290Y-202692D01*
X+2198348Y-216126D01*
X+2186406Y-216126D01*
X+2174464Y-202692D01*
X+2174464Y-182540D01*
X+2180435Y-175823D01*
D21*
X+1880377Y-2524420D02*
X+1880377Y-1214420D01*
X+2504377Y-1214420D01*
X+2504377Y-2524420D01*
X+1880377Y-2524420D01*
D24*
X+2232377Y-1499420D02*
X+2232377Y-1499420D01*
D26*
X+2210290Y-2463394D02*
X+2174464Y-2463394D01*
X+2174464Y-2423091D01*
X+2192377Y-2463394D02*
X+2192377Y-2436525D01*
X+2210290Y-2409656D02*
X+2174464Y-2409656D01*
X+2174464Y-2376070D01*
X+2180435Y-2369353D01*
X+2186406Y-2369353D01*
X+2192377Y-2376070D01*
X+2192377Y-2409656D01*
X+2192377Y-2376070D02*
X+2198348Y-2369353D01*
X+2210290Y-2369353D01*
X+2186406Y-2355918D02*
X+2174464Y-2342484D01*
X+2174464Y-2329049D01*
X+2186406Y-2315615D01*
X+2198348Y-2315615D01*
X+2210290Y-2329049D01*
X+2210290Y-2342484D01*
X+2198348Y-2355918D01*
X+2186406Y-2355918D01*
X+2210290Y-2302180D02*
X+2174464Y-2302180D01*
X+2210290Y-2261877D01*
X+2174464Y-2261877D01*
X+2174464Y-2248442D02*
X+2174464Y-2208139D01*
X+2174464Y-2228291D02*
X+2210290Y-2228291D01*
X+2174464Y-2140966D02*
X+2204319Y-2140966D01*
X+2210290Y-2134249D01*
X+2210290Y-2107380D01*
X+2204319Y-2100663D01*
X+2174464Y-2100663D01*
X+2174464Y-2087228D02*
X+2210290Y-2087228D01*
X+2210290Y-2046925D01*
X+2174464Y-2033490D02*
X+2174464Y-1993187D01*
X+2174464Y-2013339D02*
X+2210290Y-2013339D01*
X+2210290Y-1979752D02*
X+2174464Y-1979752D01*
X+2174464Y-1946166D01*
X+2180435Y-1939449D01*
X+2186406Y-1939449D01*
X+2192377Y-1946166D01*
X+2192377Y-1979752D01*
X+2192377Y-1946166D02*
X+2198348Y-1939449D01*
X+2210290Y-1939449D01*
X+2210290Y-1926014D02*
X+2186406Y-1926014D01*
X+2174464Y-1912580D01*
X+2174464Y-1899145D01*
X+2186406Y-1885711D01*
X+2210290Y-1885711D01*
X+2198348Y-1926014D02*
X+2198348Y-1885711D01*
X+2204319Y-1872276D02*
X+2210290Y-1865559D01*
X+2210290Y-1838690D01*
X+2204319Y-1831973D01*
X+2198348Y-1831973D01*
X+2192377Y-1838690D01*
X+2192377Y-1865559D01*
X+2186406Y-1872276D01*
X+2180435Y-1872276D01*
X+2174464Y-1865559D01*
X+2174464Y-1838690D01*
X+2180435Y-1831973D01*
X+2186406Y-1818538D02*
X+2174464Y-1805104D01*
X+2174464Y-1791669D01*
X+2186406Y-1778235D01*
X+2198348Y-1778235D01*
X+2210290Y-1791669D01*
X+2210290Y-1805104D01*
X+2198348Y-1818538D01*
X+2186406Y-1818538D01*
X+2210290Y-1764800D02*
X+2174464Y-1764800D01*
X+2210290Y-1724497D01*
X+2174464Y-1724497D01*
X+2174464Y-1704345D02*
X+2174464Y-1677476D01*
X+2174464Y-1690911D02*
X+2210290Y-1690911D01*
X+2210290Y-1704345D02*
X+2210290Y-1677476D01*
X+2204319Y-1617021D02*
X+2210290Y-1623738D01*
X+2210290Y-1643890D01*
X+2198348Y-1657324D01*
X+2186406Y-1657324D01*
X+2174464Y-1643890D01*
X+2174464Y-1623738D01*
X+2180435Y-1617021D01*
D13*
X-2849099Y-589928D02*
X-2320779Y-589928D01*
X-2320779Y+446392D01*
X-2849099Y+446392D01*
X-2849099Y-589928D01*
D24*
X-2711939Y+309232D02*
X-2711939Y+309232D01*
D27*
X-2549016Y-537852D02*
X-2620861Y-537852D01*
X-2620861Y-470498D01*
X-2608887Y-457027D01*
X-2596913Y-457027D01*
X-2584939Y-470498D01*
X-2572964Y-457027D01*
X-2560990Y-457027D01*
X-2549016Y-470498D01*
X-2549016Y-537852D01*
X-2584939Y-537852D02*
X-2584939Y-470498D01*
X-2620861Y-430085D02*
X-2620861Y-349260D01*
X-2620861Y-389673D02*
X-2549016Y-389673D01*
X-2560990Y-322318D02*
X-2549016Y-308848D01*
X-2549016Y-254964D01*
X-2560990Y-241493D01*
X-2572964Y-241493D01*
X-2584939Y-254964D01*
X-2584939Y-308848D01*
X-2596913Y-322318D01*
X-2608887Y-322318D01*
X-2620861Y-308848D01*
X-2620861Y-254964D01*
X-2608887Y-241493D01*
X-2620861Y-201081D02*
X-2620861Y-133726D01*
X-2608887Y-133726D01*
X-2549016Y-201081D01*
X-2596913Y-25959D02*
X-2584939Y-39430D01*
X-2584939Y-79843D01*
X-2596913Y-93314D01*
X-2608887Y-93314D01*
X-2620861Y-79843D01*
X-2620861Y-39430D01*
X-2608887Y-25959D01*
X-2560990Y-25959D01*
X-2549016Y-39430D01*
X-2549016Y-79843D01*
X-2608887Y+81808D02*
X-2620861Y+68337D01*
X-2620861Y+27924D01*
X-2608887Y+14453D01*
X-2560990Y+14453D01*
X-2549016Y+27924D01*
X-2549016Y+68337D01*
X-2560990Y+81808D01*
X-2572964Y+81808D01*
X-2584939Y+68337D01*
X-2584939Y+14453D01*
X-2560990Y+108750D02*
X-2608887Y+108750D01*
X-2620861Y+122220D01*
X-2620861Y+176104D01*
X-2608887Y+189575D01*
X-2560990Y+189575D01*
X-2549016Y+176104D01*
X-2549016Y+122220D01*
X-2560990Y+108750D01*
X-2549016Y+108750D02*
X-2620861Y+189575D01*
D13*
X+2107877Y+516359D02*
X+2382197Y+516359D01*
X+2382197Y+2568679D01*
X+2107877Y+2568679D01*
X+2107877Y+516359D01*
D24*
X+2245037Y+2431519D02*
X+2245037Y+2431519D01*
D28*
X+2298377Y+813539D02*
X+2191697Y+813539D01*
X+2245037Y+873546D01*
X+2191697Y+933554D01*
X+2298377Y+933554D01*
X+2298377Y+973559D02*
X+2191697Y+973559D01*
X+2191697Y+1073571D01*
X+2209477Y+1093574D01*
X+2227257Y+1093574D01*
X+2245037Y+1073571D01*
X+2245037Y+973559D01*
X+2191697Y+1133579D02*
X+2280597Y+1133579D01*
X+2298377Y+1153581D01*
X+2298377Y+1233591D01*
X+2280597Y+1253594D01*
X+2191697Y+1253594D01*
X+2209477Y+1573634D02*
X+2191697Y+1553631D01*
X+2191697Y+1493624D01*
X+2209477Y+1473621D01*
X+2280597Y+1473621D01*
X+2298377Y+1493624D01*
X+2298377Y+1553631D01*
X+2280597Y+1573634D01*
X+2262817Y+1573634D01*
X+2245037Y+1553631D01*
X+2245037Y+1473621D01*
X+2280597Y+1613639D02*
X+2209477Y+1613639D01*
X+2191697Y+1633641D01*
X+2191697Y+1713651D01*
X+2209477Y+1733654D01*
X+2280597Y+1733654D01*
X+2298377Y+1713651D01*
X+2298377Y+1633641D01*
X+2280597Y+1613639D01*
X+2298377Y+1613639D02*
X+2191697Y+1733654D01*
X+2191697Y+1893674D02*
X+2191697Y+1793661D01*
X+2227257Y+1793661D01*
X+2227257Y+1873671D01*
X+2245037Y+1893674D01*
X+2280597Y+1893674D01*
X+2298377Y+1873671D01*
X+2298377Y+1813664D01*
X+2280597Y+1793661D01*
X+2280597Y+1933679D02*
X+2209477Y+1933679D01*
X+2191697Y+1953681D01*
X+2191697Y+2033691D01*
X+2209477Y+2053694D01*
X+2280597Y+2053694D01*
X+2298377Y+2033691D01*
X+2298377Y+1953681D01*
X+2280597Y+1933679D01*
X+2298377Y+1933679D02*
X+2191697Y+2053694D01*
D13*
X-1834783Y-2553981D02*
X-1560463Y-2553981D01*
X-1560463Y+2298339D01*
X-1834783Y+2298339D01*
X-1834783Y-2553981D01*
D24*
X-1697623Y+2161179D02*
X-1697623Y+2161179D01*
D28*
X-1644283Y-456751D02*
X-1750963Y-456751D01*
X-1750963Y-356739D01*
X-1733183Y-336736D01*
X-1715403Y-336736D01*
X-1697623Y-356739D01*
X-1697623Y-456751D01*
X-1644283Y-296731D02*
X-1750963Y-296731D01*
X-1750963Y-176716D02*
X-1644283Y-176716D01*
X-1697623Y-296731D02*
X-1697623Y-176716D01*
X-1715403Y-96706D02*
X-1750963Y-56701D01*
X-1644283Y-56701D01*
D13*
X+1495217Y-2543981D02*
X+1769537Y-2543981D01*
X+1769537Y+2308339D01*
X+1495217Y+2308339D01*
X+1495217Y-2543981D01*
D24*
X+1632377Y+2171179D02*
X+1632377Y+2171179D01*
D28*
X+1685717Y-446751D02*
X+1579037Y-446751D01*
X+1579037Y-346739D01*
X+1596817Y-326736D01*
X+1614597Y-326736D01*
X+1632377Y-346739D01*
X+1632377Y-446751D01*
X+1685717Y-286731D02*
X+1579037Y-286731D01*
X+1579037Y-166716D02*
X+1685717Y-166716D01*
X+1632377Y-286731D02*
X+1632377Y-166716D01*
X+1596817Y-106709D02*
X+1579037Y-86706D01*
X+1579037Y-26699D01*
X+1596817Y-6696D01*
X+1614597Y-6696D01*
X+1632377Y-26699D01*
X+1632377Y-86706D01*
X+1650157Y-106709D01*
X+1685717Y-106709D01*
X+1685717Y-6696D01*
M02*
