G04 PROTEUS RS274X GERBER FILE*
%FSLAX45Y45*%
%MOMM*%
G01*
%AMDIL000*
4,1,8,
-1.397000,0.711200,-1.092200,1.016000,1.092200,1.016000,1.397000,0.711200,1.397000,-0.711200,
1.092200,-1.016000,-1.092200,-1.016000,-1.397000,-0.711200,-1.397000,0.711200,
0*%
%ADD10DIL000*%
%ADD11C,2.032000*%
%ADD12C,4.500000*%
%ADD13C,0.203200*%
D10*
X-1307623Y+2166179D03*
X-1307623Y+1912179D03*
X-1307623Y+1658179D03*
X-1307623Y+1404179D03*
X-1307623Y+1150179D03*
X-1307623Y+896179D03*
X-1307623Y+642179D03*
X-1307623Y+388179D03*
X-1307623Y+134179D03*
X-1307623Y-119812D03*
X-1307623Y-373821D03*
X-1307623Y-627821D03*
X-1307623Y-881821D03*
X-1307623Y-1135821D03*
X-1307623Y-1389821D03*
X-1307623Y-1643821D03*
X-1307623Y-1897821D03*
X-1307623Y-2151821D03*
X-1307623Y-2405821D03*
X+1232377Y-2405821D03*
X+1232377Y-2151821D03*
X+1232377Y-1897821D03*
X+1232377Y-1643821D03*
X+1232377Y-1389821D03*
X+1232377Y-1135821D03*
X+1232377Y-881821D03*
X+1232377Y-627821D03*
X+1232377Y-373821D03*
X+1232377Y-119812D03*
X+1232377Y+134179D03*
X+1232377Y+388179D03*
X+1232377Y+642179D03*
X+1232377Y+896179D03*
X+1232377Y+1150179D03*
X+1232377Y+1404179D03*
X+1232377Y+1658179D03*
X+1232377Y+1912179D03*
X+1232377Y+2166179D03*
D11*
X-2617623Y-2144599D03*
X-2617623Y-1890599D03*
X-2617623Y-1636599D03*
X-2617623Y-1382599D03*
X-2617623Y-1128599D03*
X-2665377Y+1884821D03*
X-2665377Y+1630821D03*
X-2665377Y+1376821D03*
X-2665377Y+1122821D03*
X+2232377Y-58222D03*
X+2232377Y-312222D03*
X+2232377Y-566222D03*
X+2232377Y-820222D03*
X+2232377Y-1499420D03*
X+2232377Y-1753420D03*
X+2232377Y-2007420D03*
X+2232377Y-2261420D03*
X-2711939Y+309232D03*
X-2711939Y+55232D03*
X-2711939Y-198768D03*
X-2711939Y-452768D03*
X-2457939Y-452768D03*
X-2457939Y-198768D03*
X-2457939Y+55232D03*
X-2457939Y+309232D03*
X+2245037Y+2431519D03*
X+2245037Y+2177519D03*
X+2245037Y+1923519D03*
X+2245037Y+1669519D03*
X+2245037Y+1415519D03*
X+2245037Y+1161519D03*
X+2245037Y+907519D03*
X+2245037Y+653519D03*
X-1697623Y+2161179D03*
X-1697623Y+1907179D03*
X-1697623Y+1653179D03*
X-1697623Y+1399179D03*
X-1697623Y+1145179D03*
X-1697623Y+891179D03*
X-1697623Y+637179D03*
X-1697623Y+383179D03*
X-1697623Y+129179D03*
X-1697623Y-124821D03*
X-1697623Y-378821D03*
X-1697623Y-632821D03*
X-1697623Y-886821D03*
X-1697623Y-1140821D03*
X-1697623Y-1394821D03*
X-1697623Y-1648821D03*
X-1697623Y-1902821D03*
X-1697623Y-2157821D03*
X-1697623Y-2411821D03*
X+1632377Y+2171179D03*
X+1632377Y+1917179D03*
X+1632377Y+1663179D03*
X+1632377Y+1409179D03*
X+1632377Y+1155179D03*
X+1632377Y+901179D03*
X+1632377Y+647179D03*
X+1632377Y+393179D03*
X+1632377Y+139179D03*
X+1632377Y-114821D03*
X+1632377Y-368821D03*
X+1632377Y-622821D03*
X+1632377Y-876821D03*
X+1632377Y-1130821D03*
X+1632377Y-1384821D03*
X+1632377Y-1638821D03*
X+1632377Y-1892821D03*
X+1632377Y-2147821D03*
X+1632377Y-2401821D03*
D12*
X-3160000Y+2690000D03*
X+3140000Y+2690000D03*
X-3160000Y-2700000D03*
X+3140000Y-2710000D03*
D13*
X-3500000Y-3000000D02*
X+3500000Y-3000000D01*
X+3500000Y+3000000D01*
X-3500000Y+3000000D01*
X-3500000Y-3000000D01*
M02*
